<svg width="53" height="53" viewBox="0 0 53 53" fill="none" xmlns="http://www.w3.org/2000/svg">
<g id="Group 39165">
<circle id="Ellipse 264" cx="26.5" cy="26.5" r="26.5" fill="url(#paint0_linear_2797_733)"/>
<path id="Vector" d="M39.4692 20.3421C39.4606 20.3023 39.4606 20.2612 39.4692 20.2214C39.4619 20.1866 39.4619 20.1506 39.4692 20.1158V19.9801L39.3787 19.7539C39.3419 19.6921 39.2962 19.6362 39.243 19.588L39.1072 19.4673H39.0318L33.0896 15.7119L27.4791 12.2431C27.3493 12.1401 27.2008 12.0633 27.0417 12.0169H26.9211C26.7863 11.9944 26.6487 11.9944 26.5139 12.0169H26.363C26.1879 12.0556 26.0199 12.1218 25.8653 12.2129L14.5992 19.226L14.4634 19.3316L14.3277 19.4522L14.1769 19.5578L14.1015 19.6483L14.011 19.8745V20.0103V20.1008C13.9963 20.2008 13.9963 20.3024 14.011 20.4024V33.5689C14.0105 33.8252 14.0753 34.0774 14.1993 34.3017C14.3233 34.526 14.5025 34.715 14.7198 34.8508L26.0312 41.8488L26.2575 41.9393H26.3781C26.6333 42.0202 26.9072 42.0202 27.1624 41.9393H27.283L27.5093 41.8488L38.7302 34.9564C38.9475 34.8206 39.1267 34.6316 39.2507 34.4073C39.3747 34.183 39.4395 33.9307 39.439 33.6744V20.508C39.439 20.508 39.4692 20.4024 39.4692 20.3421ZM26.6647 15.2896L29.3492 16.9486L20.9185 22.167L18.2188 20.508L26.6647 15.2896ZM25.1565 37.9124L16.8615 32.8449V23.2076L25.1565 28.3355V37.9124ZM26.6647 25.6811L23.784 23.9466L32.2148 18.7132L35.1105 20.508L26.6647 25.6811ZM36.4679 32.7997L28.1729 37.9577V28.3355L36.4679 23.2076V32.7997Z" fill="white"/>
</g>
<defs>
<linearGradient id="paint0_linear_2797_733" x1="5.5" y1="40.5" x2="53" y2="11" gradientUnits="userSpaceOnUse">
<stop stop-color="#F80759"/>
<stop offset="1" stop-color="#F80759" stop-opacity="0.5"/>
</linearGradient>
</defs>
</svg>
