<svg width="53" height="54" viewBox="0 0 53 54" fill="none" xmlns="http://www.w3.org/2000/svg">
<g id="Group 39164">
<circle id="Ellipse 264" cx="26.5" cy="27" r="26.5" fill="url(#paint0_linear_2797_31)"/>
<path id="Vector" d="M37.671 31.6786H19.4924C19.148 31.6786 18.8177 31.5418 18.5742 31.2983C18.3307 31.0548 18.1939 30.7245 18.1939 30.3801C18.1939 30.0358 18.3307 29.7055 18.5742 29.462C18.8177 29.2185 19.148 29.0817 19.4924 29.0817H33.0484C33.9166 29.0817 34.76 28.7917 35.4446 28.2577C36.1292 27.7237 36.6157 26.9763 36.827 26.1341L38.9695 17.7071C39.0181 17.5154 39.0223 17.3152 38.9818 17.1217C38.9413 16.9281 38.8571 16.7464 38.7357 16.5904C38.6095 16.4303 38.4473 16.3022 38.2623 16.2165C38.0773 16.1308 37.8747 16.0898 37.671 16.0969H19.1807C18.9128 15.3392 18.4171 14.6829 17.7616 14.218C17.106 13.753 16.3227 13.5023 15.519 13.5H14.2985C13.9541 13.5 13.6238 13.6368 13.3803 13.8803C13.1368 14.1238 13 14.4541 13 14.7985C13 15.1428 13.1368 15.4731 13.3803 15.7166C13.6238 15.9601 13.9541 16.0969 14.2985 16.0969H15.519C15.8157 16.0883 16.1063 16.1815 16.3425 16.3611C16.5788 16.5406 16.7464 16.7957 16.8175 17.0838L16.8954 17.7071L19.1418 26.4847C18.1086 26.5312 17.1363 26.9862 16.4386 27.7496C15.741 28.513 15.3752 29.5223 15.4217 30.5554C15.4681 31.5886 15.9231 32.5609 16.6865 33.2586C17.45 33.9562 18.4592 34.3221 19.4924 34.2756H19.7261C19.5125 34.8639 19.4439 35.4951 19.526 36.1156C19.6082 36.7362 19.8386 37.3278 20.1978 37.8403C20.5571 38.3529 21.0346 38.7714 21.5899 39.0603C22.1451 39.3492 22.7618 39.5 23.3878 39.5C24.0137 39.5 24.6304 39.3492 25.1857 39.0603C25.741 38.7714 26.2185 38.3529 26.5777 37.8403C26.937 37.3278 27.1674 36.7362 27.2495 36.1156C27.3316 35.4951 27.263 34.8639 27.0495 34.2756H30.1139C29.9003 34.8639 29.8317 35.4951 29.9138 36.1156C29.9959 36.7362 30.2264 37.3278 30.5856 37.8403C30.9449 38.3529 31.4224 38.7714 31.9776 39.0603C32.5329 39.3492 33.1496 39.5 33.7756 39.5C34.4015 39.5 35.0182 39.3492 35.5735 39.0603C36.1288 38.7714 36.6062 38.3529 36.9655 37.8403C37.3248 37.3278 37.5552 36.7362 37.6373 36.1156C37.7194 35.4951 37.6508 34.8639 37.4373 34.2756H37.671C38.0154 34.2756 38.3456 34.1388 38.5891 33.8953C38.8327 33.6517 38.9695 33.3215 38.9695 32.9771C38.9695 32.6327 38.8327 32.3024 38.5891 32.0589C38.3456 31.8154 38.0154 31.6786 37.671 31.6786ZM36.0089 18.6939L34.3079 25.4979C34.2368 25.786 34.0692 26.041 33.833 26.2206C33.5967 26.4002 33.3061 26.4934 33.0095 26.4847H21.8036L19.8559 18.6939H36.0089ZM23.3878 36.8725C23.131 36.8725 22.8799 36.7964 22.6664 36.6537C22.4529 36.511 22.2864 36.3082 22.1881 36.0709C22.0899 35.8337 22.0642 35.5726 22.1143 35.3207C22.1644 35.0688 22.288 34.8375 22.4696 34.6559C22.6512 34.4743 22.8826 34.3506 23.1345 34.3005C23.3863 34.2504 23.6474 34.2761 23.8847 34.3744C24.122 34.4727 24.3247 34.6391 24.4674 34.8526C24.6101 35.0662 24.6863 35.3172 24.6863 35.574C24.6863 35.9184 24.5495 36.2487 24.3059 36.4922C24.0624 36.7357 23.7322 36.8725 23.3878 36.8725ZM33.7756 36.8725C33.5188 36.8725 33.2677 36.7964 33.0542 36.6537C32.8406 36.511 32.6742 36.3082 32.5759 36.0709C32.4777 35.8337 32.4519 35.5726 32.502 35.3207C32.5521 35.0688 32.6758 34.8375 32.8574 34.6559C33.039 34.4743 33.2704 34.3506 33.5222 34.3005C33.7741 34.2504 34.0352 34.2761 34.2725 34.3744C34.5097 34.4727 34.7125 34.6391 34.8552 34.8526C34.9979 35.0662 35.074 35.3172 35.074 35.574C35.074 35.9184 34.9372 36.2487 34.6937 36.4922C34.4502 36.7357 34.1199 36.8725 33.7756 36.8725Z" fill="white"/>
</g>
<defs>
<linearGradient id="paint0_linear_2797_31" x1="5.5" y1="41" x2="53" y2="11.5" gradientUnits="userSpaceOnUse">
<stop stop-color="#F80759"/>
<stop offset="1" stop-color="#F80759" stop-opacity="0.5"/>
</linearGradient>
</defs>
</svg>
