<svg xmlns="http://www.w3.org/2000/svg" width="20" height="21" viewBox="0 0 20 21" fill="none">
    <path
        d="M18.9 0.5H1.1C0.808262 0.5 0.528473 0.615893 0.322183 0.822183C0.115893 1.02847 0 1.30826 0 1.6V19.4C0 19.5445 0.0284524 19.6875 0.0837326 19.821C0.139013 19.9544 0.220038 20.0757 0.322183 20.1778C0.424327 20.28 0.54559 20.361 0.679048 20.4163C0.812506 20.4715 0.955546 20.5 1.1 20.5H10.68V12.75H8.08V9.75H10.68V7.5C10.6261 6.97176 10.6885 6.43813 10.8627 5.93654C11.0369 5.43495 11.3188 4.97755 11.6885 4.59641C12.0582 4.21528 12.5068 3.91964 13.0028 3.73024C13.4989 3.54083 14.0304 3.46225 14.56 3.5C15.3383 3.49521 16.1163 3.53528 16.89 3.62V6.32H15.3C14.04 6.32 13.8 6.92 13.8 7.79V9.72H16.8L16.41 12.72H13.8V20.5H18.9C19.0445 20.5 19.1875 20.4715 19.321 20.4163C19.4544 20.361 19.5757 20.28 19.6778 20.1778C19.78 20.0757 19.861 19.9544 19.9163 19.821C19.9715 19.6875 20 19.5445 20 19.4V1.6C20 1.45555 19.9715 1.31251 19.9163 1.17905C19.861 1.04559 19.78 0.924327 19.6778 0.822183C19.5757 0.720038 19.4544 0.639013 19.321 0.583733C19.1875 0.528452 19.0445 0.5 18.9 0.5Z"
        fill="#3B5998" />
</svg>