<svg xmlns="http://www.w3.org/2000/svg" width="20" height="17" viewBox="0 0 20 17" fill="none">
    <path
        d="M20 2.4506C19.2483 2.7767 18.4534 2.99226 17.64 3.0906C18.4982 2.57792 19.1413 1.77138 19.45 0.8206C18.6436 1.30066 17.7608 1.6389 16.84 1.8206C16.2245 1.15317 15.405 0.708897 14.5098 0.557452C13.6147 0.406007 12.6945 0.555959 11.8938 0.98379C11.093 1.41162 10.4569 2.09313 10.0852 2.92144C9.71355 3.74974 9.62729 4.67799 9.84 5.5606C8.20943 5.47813 6.61444 5.05355 5.15865 4.31446C3.70287 3.57537 2.41885 2.53829 1.39 1.2706C1.02914 1.90077 0.839519 2.61442 0.84 3.3406C0.83872 4.01498 1.00422 4.67922 1.32176 5.27416C1.63929 5.86911 2.09902 6.37631 2.66 6.7506C2.00798 6.73286 1.36989 6.5579 0.8 6.2406V6.2906C0.804887 7.23549 1.13599 8.14969 1.73731 8.87857C2.33864 9.60744 3.17326 10.1062 4.1 10.2906C3.74326 10.3992 3.37287 10.4564 3 10.4606C2.74189 10.4576 2.48442 10.4342 2.23 10.3906C2.49391 11.2034 3.00462 11.9137 3.69107 12.4228C4.37753 12.9318 5.20558 13.2142 6.06 13.2306C4.6172 14.3659 2.83588 14.9855 1 14.9906C0.665735 14.9917 0.331736 14.9717 0 14.9306C1.87443 16.1409 4.05881 16.7833 6.29 16.7806C7.82969 16.7966 9.35714 16.5056 10.7831 15.9247C12.2091 15.3437 13.505 14.4845 14.5952 13.3971C15.6854 12.3097 16.548 11.016 17.1326 9.59151C17.7172 8.16702 18.012 6.64033 18 5.1006C18 4.9306 18 4.7506 18 4.5706C18.7847 3.98541 19.4615 3.26803 20 2.4506Z"
        fill="#009CCD" />
</svg>