<svg width="20" height="20" viewBox="0 0 20 20" fill="none" xmlns="http://www.w3.org/2000/svg">
<rect width="20" height="20" fill="#CCCCCC"/>
<g id="checkout">
<rect width="375" height="734" transform="translate(-16 -231)" fill="white"/>
<g id="mainWrap">
<rect width="375" height="653" transform="translate(-16 -152)" fill="#F5F5F5"/>
<g id="payment gateway" clip-path="url(#clip0_2262_1497)">
<rect width="375" height="132" transform="translate(-16 -12)" fill="white"/>
<g id="item 1">
<g id="item 1_2">
<mask id="path-1-inside-1_2262_1497" fill="white">
<path d="M-16 -12H359V32H-16V-12Z"/>
</mask>
<path d="M-16 -12H359V32H-16V-12Z" fill="white"/>
<g id="item 3">
<g id="Group">
<path id="Vector" d="M3.88859 5.62878H16.1112C16.2321 5.62876 16.3517 5.65254 16.4633 5.69876C16.5749 5.74498 16.6763 5.81273 16.7618 5.89815C16.8472 5.98356 16.915 6.08497 16.9612 6.19658C17.0075 6.30819 17.0312 6.42782 17.0312 6.54863V13.8952C17.0312 14.016 17.0075 14.1356 16.9612 14.2473C16.915 14.3589 16.8472 14.4603 16.7618 14.5457C16.6764 14.6312 16.5749 14.6989 16.4633 14.7452C16.3517 14.7914 16.2321 14.8152 16.1112 14.8152H3.88875C3.76793 14.8152 3.6483 14.7914 3.53668 14.7452C3.42506 14.6989 3.32364 14.6312 3.23821 14.5457C3.15278 14.4603 3.08502 14.3589 3.03878 14.2473C2.99255 14.1356 2.96875 14.016 2.96875 13.8952V6.54863C2.96875 6.42783 2.99254 6.30822 3.03877 6.19662C3.085 6.08502 3.15275 5.98362 3.23817 5.8982C3.32358 5.81278 3.42498 5.74503 3.53658 5.6988C3.64819 5.65258 3.7678 5.62878 3.88859 5.62878Z" fill="#50DDBB"/>
<path id="Vector_2" d="M2.96875 7.26941H17.0312V9.40003H2.96875V7.26941Z" fill="#307EEF"/>
<g id="Group_2">
<path id="Vector_3" d="M8.2818 10.8699H4.8457C4.77318 10.8699 4.70363 10.8987 4.65235 10.95C4.60107 11.0012 4.57227 11.0708 4.57227 11.1433C4.57227 11.2158 4.60107 11.2854 4.65235 11.3367C4.70363 11.3879 4.77318 11.4167 4.8457 11.4167H8.2818C8.35432 11.4167 8.42387 11.3879 8.47515 11.3367C8.52643 11.2854 8.55523 11.2158 8.55523 11.1433C8.55523 11.0708 8.52643 11.0012 8.47515 10.95C8.42387 10.8987 8.35432 10.8699 8.2818 10.8699Z" fill="#FCF6DE"/>
<path id="Vector_4" d="M8.2818 12.6133H4.8457C4.77318 12.6133 4.70363 12.6421 4.65235 12.6934C4.60107 12.7446 4.57227 12.8142 4.57227 12.8867C4.57227 12.9592 4.60107 13.0288 4.65235 13.0801C4.70363 13.1313 4.77318 13.1602 4.8457 13.1602H8.2818C8.35432 13.1602 8.42387 13.1313 8.47515 13.0801C8.52643 13.0288 8.55523 12.9592 8.55523 12.8867C8.55523 12.8142 8.52643 12.7446 8.47515 12.6934C8.42387 12.6421 8.35432 12.6133 8.2818 12.6133Z" fill="#FCF6DE"/>
<path id="Vector_5" d="M15.1538 12.6133H13.4351C13.3625 12.6133 13.293 12.6421 13.2417 12.6934C13.1904 12.7446 13.1616 12.8142 13.1616 12.8867C13.1616 12.9592 13.1904 13.0288 13.2417 13.0801C13.293 13.1313 13.3625 13.1602 13.4351 13.1602H15.1538C15.2263 13.1602 15.2959 13.1313 15.3472 13.0801C15.3984 13.0288 15.4272 12.9592 15.4272 12.8867C15.4272 12.8142 15.3984 12.7446 15.3472 12.6934C15.2959 12.6421 15.2263 12.6133 15.1538 12.6133Z" fill="#FCF6DE"/>
</g>
</g>
</g>
<path d="M359 31H-16V33H359V31Z" fill="#EEEEEE" mask="url(#path-1-inside-1_2262_1497)"/>
</g>
</g>
</g>
</g>
</g>
<defs>
<clipPath id="clip0_2262_1497">
<rect width="375" height="132" fill="white" transform="translate(-16 -12)"/>
</clipPath>
</defs>
</svg>
