<svg xmlns="http://www.w3.org/2000/svg" width="13" height="14" viewBox="0 0 13 15" fill="none">
    <path
        d="M1.54762 0.997925C0.696578 0.997925 0 1.6945 0 2.54554V12.4503C0 13.3013 0.696578 13.9979 1.54762 13.9979H6.75753C6.79096 14.0035 6.82507 14.0035 6.85849 13.9979H8.61468C8.6481 14.0035 8.68221 14.0035 8.71563 13.9979H11.4524C12.3034 13.9979 13 13.3013 13 12.4503V2.54554C13 1.6945 12.3034 0.997925 11.4524 0.997925H1.54762ZM1.54762 1.61697H11.4524C11.9688 1.61697 12.381 2.02911 12.381 2.54554V12.4503C12.381 12.9667 11.9688 13.3789 11.4524 13.3789H8.97619V9.04554H10.1587L10.5921 6.87888H8.97619V6.25983C8.97619 6.08727 8.99261 6.07378 9.05055 6.03615C9.10849 5.99852 9.28752 5.95031 9.59524 5.95031H10.5238V4.20742L10.3473 4.12339C10.3473 4.12339 9.6363 3.78364 8.66667 3.78364C7.97024 3.78364 7.39811 4.06111 7.03199 4.51876C6.66588 4.9764 6.5 5.5892 6.5 6.25983V6.87888H5.57143V9.04554H6.5V13.3789H1.54762C1.03118 13.3789 0.619048 12.9667 0.619048 12.4503V2.54554C0.619048 2.02911 1.03118 1.61697 1.54762 1.61697ZM8.66667 4.40269C9.31019 4.40269 9.71514 4.54459 9.90476 4.61972V5.33126H9.59524C9.23903 5.33126 8.95358 5.36073 8.71322 5.51685C8.47285 5.67298 8.35714 5.96934 8.35714 6.25983V7.49793H9.83645L9.65086 8.4265H8.35714V13.3789H7.11905V8.4265H6.19048V7.49793H7.11905V6.25983C7.11905 5.69237 7.26269 5.22183 7.51563 4.90566C7.76856 4.5895 8.125 4.40269 8.66667 4.40269Z"
        fill="white" />
</svg>