<svg width="18" height="21" viewBox="0 0 18 21" fill="none" xmlns="http://www.w3.org/2000/svg">
<path d="M12.4412 4.14381C11.4412 3.29464 10.4078 2.41714 9.36285 1.37298L8.76785 0.781311L8.18451 1.37381C6.30618 3.25881 5.41785 6.15381 5.03285 7.89048C4.73742 7.43303 4.51818 6.93066 4.38368 6.40298L4.02785 5.03881L3.00035 6.00298C1.20118 7.69298 0.000346834 9.36881 0.000346834 12.0521C-0.0169522 13.9884 0.613312 15.8749 1.791 17.412C2.96869 18.949 4.62626 20.0484 6.50035 20.5355C6.97124 20.6548 7.45077 20.737 7.93451 20.7813C6.88558 20.5858 5.93793 20.0299 5.25545 19.2097C4.57297 18.3895 4.19858 17.3566 4.19701 16.2896C4.19701 14.4146 5.32785 13.4563 6.63701 12.338C7.10451 11.9405 7.63702 11.4896 8.17451 10.9488L8.76785 10.3588L9.35785 10.9488C9.83785 11.4288 10.3178 11.8355 10.782 12.2305C12.0953 13.3446 13.3353 14.3971 13.3353 16.2896C13.334 17.3524 12.9626 18.3816 12.285 19.2003C11.6074 20.0191 10.6658 20.5763 9.62201 20.7763C11.7891 20.566 13.8002 19.5561 15.2631 17.9435C16.726 16.3308 17.5358 14.2311 17.5345 12.0538C17.5345 8.46881 15.1737 6.46464 12.4412 4.14381Z" fill="#F80759"/>
</svg>
