<svg width="53" height="53" viewBox="0 0 53 53" fill="none" xmlns="http://www.w3.org/2000/svg">
<g id="Group 39165">
<circle id="Ellipse 264" cx="26.5" cy="26.5" r="26.5" fill="url(#paint0_linear_2797_793)"/>
<path id="Vector" d="M35.4942 19.5058H34.9693C35.3116 18.8051 35.491 18.0362 35.4942 17.2564C35.4987 16.2116 35.1905 15.1895 34.6091 14.3214C34.0278 13.4533 33.1999 12.7791 32.2322 12.3856C31.2644 11.992 30.2009 11.8971 29.1787 12.113C28.1566 12.329 27.2224 12.8459 26.4965 13.5973C25.7706 12.8459 24.8365 12.329 23.8143 12.113C22.7921 11.8971 21.7287 11.992 20.7609 12.3856C19.7931 12.7791 18.9652 13.4533 18.3839 14.3214C17.8025 15.1895 17.4943 16.2116 17.4988 17.2564C17.502 18.0362 17.6815 18.8051 18.0237 19.5058H17.4988C16.3057 19.5058 15.1614 19.9798 14.3177 20.8235C13.474 21.6672 13 22.8115 13 24.0046V27.0039C13 27.4016 13.158 27.783 13.4392 28.0643C13.7205 28.3455 14.1019 28.5035 14.4996 28.5035H15.9992V37.5012C15.9992 38.6943 16.4732 39.8386 17.3169 40.6823C18.1606 41.526 19.3049 42 20.4981 42H32.495C33.6881 42 34.8324 41.526 35.6761 40.6823C36.5198 39.8386 36.9938 38.6943 36.9938 37.5012V28.5035H38.4934C38.8911 28.5035 39.2726 28.3455 39.5538 28.0643C39.835 27.783 39.993 27.4016 39.993 27.0039V24.0046C39.993 22.8115 39.519 21.6672 38.6754 20.8235C37.8317 19.9798 36.6874 19.5058 35.4942 19.5058ZM24.9969 39.0008H20.4981C20.1003 39.0008 19.7189 38.8428 19.4377 38.5615C19.1564 38.2803 18.9985 37.8989 18.9985 37.5012V28.5035H24.9969V39.0008ZM24.9969 25.5043H15.9992V24.0046C15.9992 23.6069 16.1572 23.2255 16.4385 22.9443C16.7197 22.663 17.1011 22.505 17.4988 22.505H24.9969V25.5043ZM24.9969 19.5058H22.7475C22.3026 19.5058 21.8677 19.3739 21.4978 19.1267C21.1279 18.8795 20.8395 18.5282 20.6693 18.1172C20.499 17.7062 20.4545 17.2539 20.5413 16.8175C20.6281 16.3812 20.8423 15.9804 21.1569 15.6658C21.4715 15.3512 21.8723 15.137 22.3086 15.0502C22.745 14.9634 23.1973 15.0079 23.6083 15.1782C24.0193 15.3484 24.3706 15.6368 24.6178 16.0067C24.865 16.3766 24.9969 16.8115 24.9969 17.2564V19.5058ZM27.9961 17.2564C27.9961 16.8115 28.1281 16.3766 28.3752 16.0067C28.6224 15.6368 28.9737 15.3484 29.3847 15.1782C29.7958 15.0079 30.248 14.9634 30.6844 15.0502C31.1207 15.137 31.5215 15.3512 31.8361 15.6658C32.1507 15.9804 32.3649 16.3812 32.4517 16.8175C32.5385 17.2539 32.494 17.7062 32.3237 18.1172C32.1535 18.5282 31.8652 18.8795 31.4953 19.1267C31.1253 19.3739 30.6904 19.5058 30.2455 19.5058H27.9961V17.2564ZM33.9946 37.5012C33.9946 37.8989 33.8366 38.2803 33.5554 38.5615C33.2741 38.8428 32.8927 39.0008 32.495 39.0008H27.9961V28.5035H33.9946V37.5012ZM36.9938 25.5043H27.9961V22.505H35.4942C35.8919 22.505 36.2733 22.663 36.5546 22.9443C36.8358 23.2255 36.9938 23.6069 36.9938 24.0046V25.5043Z" fill="white"/>
</g>
<defs>
<linearGradient id="paint0_linear_2797_793" x1="5.5" y1="40.5" x2="53" y2="11" gradientUnits="userSpaceOnUse">
<stop stop-color="#F80759"/>
<stop offset="1" stop-color="#F80759" stop-opacity="0.5"/>
</linearGradient>
</defs>
</svg>
