<svg width="40" height="40" viewBox="0 0 40 40" fill="none" xmlns="http://www.w3.org/2000/svg">
<path d="M13.3956 35.8331C14.611 35.8331 15.5963 34.8478 15.5963 33.6324C15.5963 32.417 14.611 31.4317 13.3956 31.4317C12.1802 31.4317 11.1949 32.417 11.1949 33.6324C11.1949 34.8478 12.1802 35.8331 13.3956 35.8331Z" fill="white"/>
<path d="M30.9698 35.8331C32.1852 35.8331 33.1704 34.8478 33.1704 33.6324C33.1704 32.417 32.1852 31.4317 30.9698 31.4317C29.7543 31.4317 28.7691 32.417 28.7691 33.6324C28.7691 34.8478 29.7543 35.8331 30.9698 35.8331Z" fill="white"/>
<path d="M30.2824 29.8545H14.8619C12.1774 29.8545 9.77378 28.0596 9.009 25.4844L4.3735 9.56447C3.34338 5.61571 1.29877 5.66253 1.25195 5.67814C0.643244 5.70935 0.0501501 5.22551 0.00332682 4.5856C-0.0434964 3.96129 0.409128 3.39941 1.03344 3.33698C1.18952 3.33698 5.07584 2.99361 6.62101 8.94016L11.2565 24.8132C11.7247 26.4052 13.2075 27.5134 14.8619 27.5134H30.2824C31.9368 27.5134 33.4351 26.4052 33.9034 24.7976L37.1966 13.4976C37.5243 12.3583 37.3058 11.1408 36.5879 10.1888C35.8699 9.2367 34.7774 8.69043 33.5756 8.69043H11.6311C10.9912 8.69043 10.4605 8.15977 10.4605 7.51985C10.4605 6.87993 10.9912 6.34927 11.6311 6.34927H33.5756C35.5109 6.34927 37.2902 7.23891 38.4608 8.78408C39.6314 10.3292 39.9748 12.2958 39.4441 14.1531L36.1509 25.4532C35.3861 28.044 32.9825 29.8545 30.2824 29.8545Z" fill="white"/>
</svg>
