<svg xmlns="http://www.w3.org/2000/svg" width="16" height="17" viewBox="0 0 16 17" fill="none">
    <path
        d="M8.00001 15.1667C11.6819 15.1667 14.6667 12.1819 14.6667 8.50004C14.6667 4.81814 11.6819 1.83337 8.00001 1.83337C4.31811 1.83337 1.33334 4.81814 1.33334 8.50004C1.33334 12.1819 4.31811 15.1667 8.00001 15.1667Z"
        stroke="white" stroke-linecap="round" stroke-linejoin="round" />
    <path
        d="M8.00001 11.1667C9.47277 11.1667 10.6667 9.9728 10.6667 8.50004C10.6667 7.02728 9.47277 5.83337 8.00001 5.83337C6.52725 5.83337 5.33334 7.02728 5.33334 8.50004C5.33334 9.9728 6.52725 11.1667 8.00001 11.1667Z"
        stroke="white" stroke-linecap="round" stroke-linejoin="round" />
    <path d="M9.88666 10.3867L12.7133 13.2134" stroke="white" stroke-linecap="round"
        stroke-linejoin="round" />
    <path d="M3.28665 13.2134L6.11332 10.3867" stroke="white" stroke-linecap="round"
        stroke-linejoin="round" />
    <path d="M9.88666 6.61329L12.7133 3.78662" stroke="white" stroke-linecap="round"
        stroke-linejoin="round" />
    <path d="M9.88666 6.61334L12.24 4.26001" stroke="white" stroke-linecap="round"
        stroke-linejoin="round" />
    <path d="M3.28665 3.78662L6.11332 6.61329" stroke="white" stroke-linecap="round"
        stroke-linejoin="round" />
</svg>