<svg width="20" height="20" viewBox="0 0 20 20" fill="none" xmlns="http://www.w3.org/2000/svg">
<g id="item 3">
<g id="Group">
<path id="Vector" d="M14.5748 7.54375C14.5748 9.91562 12.9357 12.2312 11.6201 13.7094C11.1165 14.2799 10.5752 14.816 9.9998 15.3141C9.40136 14.8255 8.84137 14.2916 8.3248 13.7172C7.01855 12.2828 5.4248 10.0234 5.4248 7.54375C5.4248 6.33038 5.90681 5.16672 6.76479 4.30874C7.62277 3.45076 8.78644 2.96875 9.9998 2.96875C11.2132 2.96875 12.3768 3.45076 13.2348 4.30874C14.0928 5.16672 14.5748 6.33038 14.5748 7.54375Z" fill="#D9176C"/>
<path id="Vector_2" d="M9.99967 9.86457C11.2812 9.86457 12.3201 8.82566 12.3201 7.5441C12.3201 6.26254 11.2812 5.22363 9.99967 5.22363C8.71811 5.22363 7.6792 6.26254 7.6792 7.5441C7.6792 8.82566 8.71811 9.86457 9.99967 9.86457Z" fill="#FFF69A"/>
<path id="Vector_3" d="M14.5748 15.314C14.5748 16.2625 12.5264 17.0312 9.9998 17.0312C7.47324 17.0312 5.4248 16.2625 5.4248 15.314C5.4248 14.589 6.62637 13.9687 8.3248 13.7172C8.84137 14.2916 9.40136 14.8255 9.9998 15.314C10.5752 14.816 11.1165 14.2799 11.6201 13.7094C13.3467 13.9547 14.5748 14.5812 14.5748 15.314Z" fill="#FFD782"/>
</g>
</g>
</svg>
