<svg width="26" height="26" viewBox="0 0 26 26" fill="none" xmlns="http://www.w3.org/2000/svg">
<g id="active">
<path id="Vector" d="M12.3047 0.00664222C13.3186 -0.014371 14.3225 0.00664221 15.3264 0.185255C16.3001 0.363867 17.2337 0.637039 18.1473 1.02578C18.3179 1.09933 18.338 1.15186 18.2276 1.31997C17.5851 2.28658 16.9426 3.25319 16.3202 4.24081C16.2098 4.41942 16.1094 4.39841 15.9387 4.34587C13.2785 3.54737 10.6985 3.70497 8.29927 5.19691C6.13091 6.54175 4.57491 8.45396 4.07297 11.1016C3.45057 14.3061 4.27374 17.0904 6.52242 19.3808C7.97803 20.8728 9.72477 21.7763 11.7526 22.0285C13.2584 22.2176 14.7341 22.0915 16.1797 21.5662C16.3604 21.5032 16.4608 21.5242 16.5712 21.6923C17.1936 22.6589 17.816 23.615 18.4484 24.5606C18.5689 24.7392 18.5287 24.7917 18.3581 24.8758C17.033 25.4747 15.6476 25.8214 14.2121 25.9475C14.1518 25.9475 14.0816 25.9159 14.0515 26C13.3688 26 12.6762 26 11.9935 26C11.6623 25.8739 11.3109 25.9054 10.9696 25.8319C5.97029 24.8863 2.38647 22.039 0.710003 16.9853C-0.745612 12.6041 0.0675191 8.48548 2.86832 4.88171C4.95638 2.19202 7.70699 0.658052 10.9696 0.111708C11.4113 0.0696819 11.863 0.0486687 12.3047 0.00664222Z" fill="#DA1A5D"/>
<path id="Vector_2" d="M25.9974 13.0453C25.9272 17.353 24.1804 20.7677 20.9178 23.3628C20.7673 23.4889 20.697 23.4679 20.5866 23.2998C19.9642 22.3437 19.3418 21.3981 18.7093 20.463C18.5989 20.2949 18.5989 20.2213 18.7595 20.0847C20.2252 18.8765 21.3595 17.395 21.8414 15.4933C22.6746 12.2258 22.0422 9.31545 19.7734 6.8464C19.402 6.43664 18.9904 6.05841 18.5487 5.7327C18.4182 5.63814 18.3881 5.56459 18.4885 5.4175C19.1309 4.4614 19.7734 3.5053 20.4059 2.53869C20.4962 2.3916 20.5665 2.38109 20.697 2.48616C23.5781 4.66103 25.365 7.53984 25.897 11.2382C25.9372 11.5218 25.9774 11.816 25.9874 12.1102C26.0075 12.4254 25.9974 12.7406 25.9974 13.0453Z" fill="#1D96D2"/>
<path id="Vector_3" d="M13.0277 18.3827C10.5381 18.3827 8.37977 16.7332 7.75737 14.3692C6.99443 11.4483 8.69097 8.43293 11.5219 7.66595C13.7605 7.05656 16.0895 7.85506 17.4046 9.68321C19.3521 12.3834 18.5289 16.1658 15.6478 17.7208C14.8347 18.1726 13.9613 18.4037 13.0277 18.3827ZM13.0478 9.11586C12.335 9.10535 11.6524 9.29447 11.0601 9.65169C9.14271 10.8284 8.59059 13.3605 9.89562 15.1256C10.8995 16.4705 12.2346 16.9538 13.8208 16.6701C15.9088 16.3024 17.2942 14.033 16.732 11.9211C16.3104 10.3031 14.7845 9.13687 13.0478 9.11586Z" fill="#1E96D2"/>
</g>
</svg>
