<svg width="53" height="54" viewBox="0 0 53 54" fill="none" xmlns="http://www.w3.org/2000/svg">
<g id="Group 39164">
<circle id="Ellipse 264" cx="26.5" cy="27" r="26.5" fill="url(#paint0_linear_2797_762)"/>
<path id="Vector" d="M30 23.5H24C23.2044 23.5 22.4413 23.1839 21.8787 22.6213C21.3161 22.0587 21 21.2956 21 20.5C21 19.7044 21.3161 18.9413 21.8787 18.3787C22.4413 17.8161 23.2044 17.5 24 17.5H31.5C31.8978 17.5 32.2794 17.658 32.5607 17.9393C32.842 18.2206 33 18.6022 33 19C33 19.3978 33.158 19.7794 33.4393 20.0607C33.7206 20.342 34.1022 20.5 34.5 20.5C34.8978 20.5 35.2794 20.342 35.5607 20.0607C35.842 19.7794 36 19.3978 36 19C36 17.8065 35.5259 16.6619 34.682 15.818C33.8381 14.9741 32.6935 14.5 31.5 14.5H28.5V11.5C28.5 11.1022 28.342 10.7206 28.0607 10.4393C27.7794 10.158 27.3978 10 27 10C26.6022 10 26.2206 10.158 25.9393 10.4393C25.658 10.7206 25.5 11.1022 25.5 11.5V14.5H24C22.4087 14.5 20.8826 15.1321 19.7574 16.2574C18.6321 17.3826 18 18.9087 18 20.5C18 22.0913 18.6321 23.6174 19.7574 24.7426C20.8826 25.8679 22.4087 26.5 24 26.5H30C30.7956 26.5 31.5587 26.8161 32.1213 27.3787C32.6839 27.9413 33 28.7044 33 29.5C33 30.2956 32.6839 31.0587 32.1213 31.6213C31.5587 32.1839 30.7956 32.5 30 32.5H22.5C22.1022 32.5 21.7206 32.342 21.4393 32.0607C21.158 31.7794 21 31.3978 21 31C21 30.6022 20.842 30.2206 20.5607 29.9393C20.2794 29.658 19.8978 29.5 19.5 29.5C19.1022 29.5 18.7206 29.658 18.4393 29.9393C18.158 30.2206 18 30.6022 18 31C18 32.1935 18.4741 33.3381 19.318 34.182C20.1619 35.0259 21.3065 35.5 22.5 35.5H25.5V38.5C25.5 38.8978 25.658 39.2794 25.9393 39.5607C26.2206 39.842 26.6022 40 27 40C27.3978 40 27.7794 39.842 28.0607 39.5607C28.342 39.2794 28.5 38.8978 28.5 38.5V35.5H30C31.5913 35.5 33.1174 34.8679 34.2426 33.7426C35.3679 32.6174 36 31.0913 36 29.5C36 27.9087 35.3679 26.3826 34.2426 25.2574C33.1174 24.1321 31.5913 23.5 30 23.5Z" fill="white"/>
</g>
<defs>
<linearGradient id="paint0_linear_2797_762" x1="5.5" y1="41" x2="53" y2="11.5" gradientUnits="userSpaceOnUse">
<stop stop-color="#F80759"/>
<stop offset="1" stop-color="#F80759" stop-opacity="0.5"/>
</linearGradient>
</defs>
</svg>
