<svg width="20" height="20" viewBox="0 0 20 20" fill="none" xmlns="http://www.w3.org/2000/svg">
<path d="M3.59375 2.34375C3.59375 2.01223 3.46205 1.69429 3.22763 1.45987C2.99321 1.22545 2.67527 1.09375 2.34375 1.09375C2.01223 1.09375 1.69429 1.22545 1.45987 1.45987C1.22545 1.69429 1.09375 2.01223 1.09375 2.34375V4.88812H3.59375V2.34375Z" fill="#C5C9F7"/>
<path d="M4.84375 18.9062C4.51223 18.9062 4.19429 18.7746 3.95987 18.5401C3.72545 18.3057 3.59375 17.9878 3.59375 17.6562V2.34375C3.59375 2.01223 3.46205 1.69429 3.22763 1.45987C2.99321 1.22545 2.67527 1.09375 2.34375 1.09375H15.1562C15.4878 1.09375 15.8057 1.22545 16.0401 1.45987C16.2746 1.69429 16.4062 2.01223 16.4062 2.34375V18.9062H4.84375Z" fill="#E1E4FB"/>
<path d="M4.84375 18.9062H17.6562C17.9878 18.9062 18.3057 18.7745 18.5401 18.5401C18.7746 18.3057 18.9062 17.9877 18.9062 17.6562V15.1118H6.09375V17.6562C6.09375 17.9877 5.96205 18.3057 5.72763 18.5401C5.49321 18.7745 5.17527 18.9062 4.84375 18.9062Z" fill="#C5C9F7"/>
<path d="M10.3125 6.21109H9.0625C8.98998 6.21109 8.92043 6.2399 8.86915 6.29118C8.81787 6.34246 8.78906 6.41201 8.78906 6.48453C8.78906 6.55705 8.81787 6.6266 8.86915 6.67788C8.92043 6.72916 8.98998 6.75797 9.0625 6.75797H9.72656V7.10938C9.72656 7.1819 9.75537 7.25145 9.80665 7.30272C9.85793 7.354 9.92748 7.38281 10 7.38281C10.0725 7.38281 10.1421 7.354 10.1933 7.30272C10.2446 7.25145 10.2734 7.1819 10.2734 7.10938V6.75781H10.3125C10.5508 6.75781 10.7793 6.66316 10.9478 6.49467C11.1163 6.32618 11.2109 6.09766 11.2109 5.85938C11.2109 5.62109 11.1163 5.39257 10.9478 5.22408C10.7793 5.05559 10.5508 4.96094 10.3125 4.96094H9.6875C9.59426 4.96094 9.50484 4.9239 9.43891 4.85797C9.37298 4.79204 9.33594 4.70262 9.33594 4.60938C9.33594 4.51613 9.37298 4.42671 9.43891 4.36078C9.50484 4.29485 9.59426 4.25781 9.6875 4.25781H10.9375C11.01 4.25781 11.0796 4.229 11.1308 4.17772C11.1821 4.12644 11.2109 4.0569 11.2109 3.98438C11.2109 3.91185 11.1821 3.84231 11.1308 3.79103C11.0796 3.73975 11.01 3.71094 10.9375 3.71094H10.2734V3.35938C10.2734 3.28685 10.2446 3.21731 10.1933 3.16603C10.1421 3.11475 10.0725 3.08594 10 3.08594C9.92748 3.08594 9.85793 3.11475 9.80665 3.16603C9.75537 3.21731 9.72656 3.28685 9.72656 3.35938V3.71094H9.6875C9.44922 3.71094 9.2207 3.80559 9.05221 3.97408C8.88372 4.14257 8.78906 4.37109 8.78906 4.60938C8.78906 4.84766 8.88372 5.07618 9.05221 5.24467C9.2207 5.41316 9.44922 5.50781 9.6875 5.50781H10.3125C10.4057 5.50781 10.4952 5.54485 10.5611 5.61078C10.627 5.67671 10.6641 5.76613 10.6641 5.85938C10.6641 5.95262 10.627 6.04204 10.5611 6.10797C10.4952 6.1739 10.4057 6.21094 10.3125 6.21094V6.21109Z" fill="#C5C9F7"/>
<path d="M14.1406 12.5726H9.0625C8.98998 12.5726 8.92043 12.6014 8.86915 12.6527C8.81787 12.704 8.78906 12.7735 8.78906 12.8461C8.78906 12.9186 8.81787 12.9881 8.86915 13.0394C8.92043 13.0907 8.98998 13.1195 9.0625 13.1195H14.1406C14.2131 13.1195 14.2827 13.0907 14.334 13.0394C14.3853 12.9881 14.4141 12.9186 14.4141 12.8461C14.4141 12.7735 14.3853 12.704 14.334 12.6527C14.2827 12.6014 14.2131 12.5726 14.1406 12.5726Z" fill="#C5C9F7"/>
<path d="M14.1406 10.6605H9.0625C8.98998 10.6605 8.92043 10.6893 8.86915 10.7406C8.81787 10.7919 8.78906 10.8614 8.78906 10.934C8.78906 11.0065 8.81787 11.076 8.86915 11.1273C8.92043 11.1786 8.98998 11.2074 9.0625 11.2074H14.1406C14.2131 11.2074 14.2827 11.1786 14.334 11.1273C14.3853 11.076 14.4141 11.0065 14.4141 10.934C14.4141 10.8614 14.3853 10.7919 14.334 10.7406C14.2827 10.6893 14.2131 10.6605 14.1406 10.6605Z" fill="#C5C9F7"/>
<path d="M9.0625 9.29517H14.1406C14.2131 9.29517 14.2827 9.26636 14.334 9.21508C14.3853 9.1638 14.4141 9.09425 14.4141 9.02173C14.4141 8.94921 14.3853 8.87966 14.334 8.82838C14.2827 8.7771 14.2131 8.74829 14.1406 8.74829H9.0625C8.98998 8.74829 8.92043 8.7771 8.86915 8.82838C8.81787 8.87966 8.78906 8.94921 8.78906 9.02173C8.78906 9.09425 8.81787 9.1638 8.86915 9.21508C8.92043 9.26636 8.98998 9.29517 9.0625 9.29517Z" fill="#C5C9F7"/>
<path d="M6.84375 12.5726H5.85938C5.78685 12.5726 5.7173 12.6014 5.66603 12.6527C5.61475 12.704 5.58594 12.7735 5.58594 12.8461C5.58594 12.9186 5.61475 12.9881 5.66603 13.0394C5.7173 13.0907 5.78685 13.1195 5.85938 13.1195H6.84375C6.91627 13.1195 6.98582 13.0907 7.0371 13.0394C7.08838 12.9881 7.11719 12.9186 7.11719 12.8461C7.11719 12.7735 7.08838 12.704 7.0371 12.6527C6.98582 12.6014 6.91627 12.5726 6.84375 12.5726Z" fill="#C5C9F7"/>
<path d="M6.84375 10.6605H5.85938C5.78685 10.6605 5.7173 10.6893 5.66603 10.7406C5.61475 10.7919 5.58594 10.8614 5.58594 10.934C5.58594 11.0065 5.61475 11.076 5.66603 11.1273C5.7173 11.1786 5.78685 11.2074 5.85938 11.2074H6.84375C6.91627 11.2074 6.98582 11.1786 7.0371 11.1273C7.08838 11.076 7.11719 11.0065 7.11719 10.934C7.11719 10.8614 7.08838 10.7919 7.0371 10.7406C6.98582 10.6893 6.91627 10.6605 6.84375 10.6605Z" fill="#C5C9F7"/>
<path d="M6.84375 8.74829H5.85938C5.78685 8.74829 5.7173 8.7771 5.66603 8.82838C5.61475 8.87966 5.58594 8.94921 5.58594 9.02173C5.58594 9.09425 5.61475 9.1638 5.66603 9.21508C5.7173 9.26636 5.78685 9.29517 5.85938 9.29517H6.84375C6.91627 9.29517 6.98582 9.26636 7.0371 9.21508C7.08838 9.1638 7.11719 9.09425 7.11719 9.02173C7.11719 8.94921 7.08838 8.87966 7.0371 8.82838C6.98582 8.7771 6.91627 8.74829 6.84375 8.74829Z" fill="#C5C9F7"/>
</svg>
