<svg xmlns="http://www.w3.org/2000/svg" width="16" height="16" viewBox="0 0 16 16" fill="none">
    <path
        d="M0.666656 12.5C0.666656 11 2.66666 11 3.66666 10C4.16666 9.5 2.66666 9.5 2.66666 7C2.66666 5.3335 3.33316 4.5 4.66666 4.5C6.00016 4.5 6.66666 5.3335 6.66666 7C6.66666 9.5 5.16666 9.5 5.66666 10C6.66666 11 8.66666 11 8.66666 12.5"
        stroke="white" stroke-linecap="round" />
    <path
        d="M7.99649 11.3287C8.37449 11.0682 8.86519 10.8807 9.33474 10.6545C9.70185 10.4777 10.056 10.2773 10.3333 10C10.8333 9.5 9.33334 9.5 9.33334 7C9.33334 5.3335 9.99984 4.5 11.3333 4.5C12.6668 4.5 13.3333 5.3335 13.3333 7C13.3333 9.5 11.8333 9.5 12.3333 10C13.3333 11 15.3333 11 15.3333 12.5"
        stroke="white" stroke-linecap="round" />
</svg>