<svg width="68" height="73" viewBox="0 0 68 73" fill="none" xmlns="http://www.w3.org/2000/svg">
<g id="Frame">
<path id="Vector" fill-rule="evenodd" clip-rule="evenodd" d="M13.1281 23.4195C14.2116 23.1577 15.3191 23.0259 16.43 23.0265C25.2275 23.0265 32.3572 31.1745 32.3572 41.2215C32.3572 51.2715 25.2275 59.4195 16.43 59.4195C7.63248 59.4195 0.499985 51.2745 0.499985 41.2215C0.499985 40.9275 0.50561 40.6305 0.519672 40.3365H0.499985C0.499985 25.1715 11.3 12.8325 24.575 12.8325V18.9405C20.269 18.9405 16.2978 20.6145 13.1281 23.4195ZM48.7737 23.4195C49.8369 23.1615 50.9394 23.0265 52.07 23.0265C60.8675 23.0265 68 31.1745 68 41.2215C68 51.2715 60.8675 59.4195 52.07 59.4195C43.2725 59.4195 36.1428 51.2745 36.1428 41.2215C36.1428 40.9275 36.1484 40.6305 36.1625 40.3365H36.1428C36.1428 25.1715 46.9428 12.8325 60.2178 12.8325V18.9405C55.909 18.9405 51.9434 20.6145 48.7737 23.4195Z" fill="#F80759"/>
</g>
</svg>
