<svg width="40" height="40" viewBox="0 0 40 40" fill="none" xmlns="http://www.w3.org/2000/svg">
<g id="Group 3619">
<circle id="Ellipse 1" cx="20" cy="20" r="20" fill="white"/>
<g id="Group 3109">
<path id="Vector" d="M20.1272 20.6255C24.4421 20.6255 27.94 17.1276 27.94 12.8128C27.94 8.49789 24.4421 5 20.1272 5C15.8123 5 12.3145 8.49789 12.3145 12.8128C12.3145 17.1276 15.8123 20.6255 20.1272 20.6255Z" fill="#F80759"/>
<path id="Vector_2" d="M30.4936 26.0227C32.609 27.3799 32.819 30.4057 30.9023 32.0315C30.8803 32.0503 30.8582 32.0689 30.836 32.0875C27.9402 34.5209 24.2051 35.9849 20.1276 35.9849C16.0097 35.9849 12.2422 34.4913 9.33452 32.0157C9.32321 32.006 9.3119 31.9964 9.30059 31.9867C7.39486 30.3573 7.62031 27.3357 9.73496 25.9887C12.726 24.0834 16.2779 22.98 20.0871 22.98C23.9211 22.98 27.4915 24.0966 30.4936 26.0227Z" fill="#F80759"/>
</g>
</g>
</svg>
