<svg xmlns="http://www.w3.org/2000/svg" width="13" height="13" viewBox="0 0 13 13" fill="none">
    <path
        d="M1.54762 0C0.696578 0 0 0.696578 0 1.54762V11.4524C0 12.3034 0.696578 13 1.54762 13H11.4524C12.3034 13 13 12.3034 13 11.4524V1.54762C13 0.696578 12.3034 0 11.4524 0H1.54762ZM1.54762 0.619048H3.5831C2.51273 1.73275 1.85714 3.19541 1.85714 4.79762C1.85714 6.45709 2.55919 7.9698 3.69857 9.09649C3.65715 9.05704 3.71077 9.12565 3.7161 9.24702C3.7216 9.37231 3.70274 9.54445 3.65202 9.71494C3.55058 10.0559 3.33842 10.3702 2.9973 10.4839C2.93251 10.5055 2.87668 10.5479 2.83851 10.6045C2.80033 10.6612 2.78195 10.7288 2.78622 10.797C2.7905 10.8651 2.8172 10.93 2.86215 10.9814C2.90711 11.0328 2.96781 11.0679 3.03478 11.0812C3.88898 11.252 4.49319 10.9948 4.93848 10.7904C5.38376 10.586 5.62437 10.4484 6.07441 10.6302C6.07561 10.6306 6.07682 10.631 6.07803 10.6314C6.92065 10.9608 7.84836 11.1429 8.82143 11.1429C10.1206 11.1429 11.3382 10.8182 12.381 10.2524V11.4524C12.381 11.9688 11.9688 12.381 11.4524 12.381H1.54762C1.03118 12.381 0.619048 11.9688 0.619048 11.4524V1.54762C0.619048 1.03118 1.03118 0.619048 1.54762 0.619048ZM4.48689 0.619048H11.4524C11.9688 0.619048 12.381 1.03118 12.381 1.54762V9.53478C11.3678 10.1563 10.1445 10.5238 8.82143 10.5238C7.92695 10.5238 7.07684 10.3565 6.30655 10.0559C5.65251 9.79168 5.11975 10.0258 4.68034 10.2276C4.44236 10.3368 4.20758 10.4277 3.9422 10.4779C4.07349 10.2907 4.18579 10.0907 4.24507 9.89146C4.31511 9.65605 4.34358 9.42552 4.33454 9.21982C4.32554 9.01483 4.30763 8.82709 4.13444 8.65699L4.13384 8.65639C3.10048 7.63452 2.47619 6.28294 2.47619 4.79762C2.47619 3.15015 3.24572 1.6676 4.48689 0.619048ZM8.97135 3.40053C8.88937 3.40181 8.81124 3.43557 8.75412 3.49439C8.697 3.55321 8.66554 3.6323 8.66667 3.71429V6.5C8.66609 6.54102 8.67367 6.58174 8.68896 6.6198C8.70425 6.65786 8.72696 6.6925 8.75576 6.72171C8.78456 6.75092 8.81888 6.77412 8.85672 6.78995C8.89456 6.80578 8.93517 6.81393 8.97619 6.81393C9.01721 6.81393 9.05782 6.80578 9.09566 6.78995C9.1335 6.77412 9.16782 6.75092 9.19662 6.72171C9.22542 6.6925 9.24813 6.65786 9.26342 6.6198C9.27872 6.58174 9.28629 6.54102 9.28572 6.5V3.71429C9.28628 3.67287 9.27853 3.63177 9.26293 3.59341C9.24732 3.55505 9.22418 3.52021 9.19487 3.49095C9.16555 3.46169 9.13067 3.43861 9.09228 3.42308C9.05388 3.40755 9.01276 3.39988 8.97135 3.40053ZM4.33333 3.71429C4.29232 3.71371 4.2516 3.72128 4.21353 3.73658C4.17547 3.75187 4.14083 3.77458 4.11162 3.80338C4.08241 3.83218 4.05922 3.8665 4.04339 3.90434C4.02755 3.94218 4.0194 3.98279 4.0194 4.02381C4.0194 4.06483 4.02755 4.10544 4.04339 4.14328C4.05922 4.18112 4.08241 4.21544 4.11162 4.24424C4.14083 4.27304 4.17547 4.29575 4.21353 4.31104C4.2516 4.32634 4.29232 4.33391 4.33333 4.33333H5.32296L4.07096 6.33617C4.04175 6.38301 4.0256 6.43682 4.02418 6.492C4.02276 6.54719 4.03612 6.60175 4.06288 6.65004C4.08965 6.69832 4.12884 6.73857 4.17639 6.76661C4.22394 6.79466 4.27813 6.80947 4.33333 6.80952H5.88095C5.92197 6.8101 5.96269 6.80253 6.00075 6.78723C6.03881 6.77194 6.07346 6.74923 6.10267 6.72043C6.13188 6.69163 6.15507 6.65731 6.1709 6.61947C6.18673 6.58163 6.19488 6.54102 6.19488 6.5C6.19488 6.45898 6.18673 6.41837 6.1709 6.38053C6.15507 6.34269 6.13188 6.30837 6.10267 6.27957C6.07346 6.25077 6.03881 6.22806 6.00075 6.21277C5.96269 6.19747 5.92197 6.1899 5.88095 6.19048H4.89132L6.14332 4.18764C6.17253 4.1408 6.18869 4.08699 6.19011 4.03181C6.19153 3.97662 6.17816 3.92206 6.1514 3.87377C6.12464 3.82549 6.08545 3.78524 6.0379 3.7572C5.99035 3.72915 5.93616 3.71434 5.88095 3.71429H4.33333ZM8.04278 4.63863C7.99201 4.63952 7.94224 4.65289 7.89786 4.67756C7.85347 4.70223 7.81584 4.73744 7.78827 4.78009C7.63426 4.69551 7.46059 4.64286 7.27381 4.64286C6.67917 4.64286 6.19048 5.13155 6.19048 5.72619C6.19048 6.32083 6.67917 6.80952 7.27381 6.80952C7.46041 6.80952 7.63376 6.75671 7.78767 6.67229C7.82414 6.7287 7.87797 6.77171 7.94103 6.79484C8.00409 6.81797 8.07297 6.81996 8.13726 6.80051C8.20155 6.78105 8.25777 6.74122 8.29744 6.68701C8.3371 6.6328 8.35806 6.56716 8.35714 6.5V5.72619V4.95238C8.35771 4.91097 8.34996 4.86987 8.33436 4.8315C8.31875 4.79314 8.29561 4.7583 8.26629 4.72904C8.23698 4.69979 8.2021 4.67671 8.1637 4.66118C8.12531 4.64565 8.08419 4.63798 8.04278 4.63863ZM10.6786 4.64286C10.0839 4.64286 9.59524 5.13155 9.59524 5.72619C9.59524 6.32083 10.0839 6.80952 10.6786 6.80952C11.2732 6.80952 11.7619 6.32083 11.7619 5.72619C11.7619 5.13155 11.2732 4.64286 10.6786 4.64286ZM7.27381 5.2619C7.53389 5.2619 7.7381 5.46611 7.7381 5.72619C7.7381 5.98627 7.53389 6.19048 7.27381 6.19048C7.01373 6.19048 6.80952 5.98627 6.80952 5.72619C6.80952 5.46611 7.01373 5.2619 7.27381 5.2619ZM10.6786 5.2619C10.9387 5.2619 11.1429 5.46611 11.1429 5.72619C11.1429 5.98627 10.9387 6.19048 10.6786 6.19048C10.4185 6.19048 10.2143 5.98627 10.2143 5.72619C10.2143 5.46611 10.4185 5.2619 10.6786 5.2619Z"
        fill="white" />
</svg>