<svg width="144" height="47" viewBox="0 0 144 47" fill="none" xmlns="http://www.w3.org/2000/svg">
<path d="M144 40.6509C144 44.1626 141.157 47 137.638 47H6.36246C2.8434 47 0 44.1626 0 40.6509V6.34907C0 2.83742 2.8434 0 6.36246 0H137.638C141.157 0 144 2.83742 144 6.34907V40.6509V40.6509Z" fill="black"/>
<path d="M11.3135 9.04639V24.9753V40.876L27.3277 24.9753L11.3135 9.04639Z" fill="url(#paint0_linear)"/>
<path d="M31.621 20.6766L25.1704 16.9402L11.3157 8.93359V9.04597L27.3299 24.9748L31.621 20.6766Z" fill="url(#paint1_linear)"/>
<path d="M11.3135 40.8759V40.9882L25.1682 32.9817L31.6188 29.2453L27.3277 24.9751L11.3135 40.8759Z" fill="url(#paint2_linear)"/>
<path d="M31.6182 20.6768L27.3271 24.975L31.6182 29.2452L39.0223 24.975L31.6182 20.6768Z" fill="url(#paint3_linear)"/>
<path d="M112.197 31.1833C111.608 31.1833 111.047 31.0709 110.542 30.8462C110.037 30.6214 109.617 30.2843 109.28 29.8067H109.168C109.224 30.3405 109.28 30.8462 109.28 31.3519V35.1726H107.878V21.7721H109.028L109.224 23.0363H109.28C109.645 22.5306 110.066 22.1654 110.542 21.9406C111.019 21.7159 111.58 21.6035 112.197 21.6035C113.431 21.6035 114.357 22.0249 115.03 22.8677C115.703 23.7105 116.039 24.8904 116.039 26.4075C116.039 27.9245 115.703 29.1044 115.03 29.9472C114.329 30.7619 113.375 31.1833 112.197 31.1833ZM111.973 22.7834C111.019 22.7834 110.346 23.0363 109.925 23.57C109.505 24.1038 109.28 24.9185 109.28 26.0703V26.3794C109.28 27.6717 109.505 28.5987 109.925 29.1606C110.346 29.7225 111.047 30.0034 112.001 30.0034C112.786 30.0034 113.431 29.6663 113.88 29.0201C114.329 28.374 114.553 27.475 114.553 26.3513C114.553 25.1995 114.329 24.3005 113.88 23.6824C113.431 23.0925 112.814 22.7834 111.973 22.7834Z" fill="#F9F9F9"/>
<path d="M119.265 31.0148H117.863V17.8672H119.265V31.0148Z" fill="#F9F9F9"/>
<path d="M127.315 31.0148L127.034 29.6944H126.978C126.529 30.2843 126.053 30.6776 125.604 30.8743C125.155 31.0709 124.566 31.1833 123.893 31.1833C122.968 31.1833 122.266 30.9586 121.734 30.481C121.201 30.0034 120.948 29.3292 120.948 28.4583C120.948 26.576 122.435 25.6209 125.436 25.5085L127.006 25.4523V24.8904C127.006 24.16 126.838 23.6262 126.529 23.2891C126.221 22.952 125.716 22.7834 125.043 22.7834C124.286 22.7834 123.388 23.0082 122.435 23.4858L122.014 22.4182C122.463 22.1654 122.968 21.9687 123.5 21.8283C124.033 21.6878 124.594 21.6035 125.127 21.6035C126.221 21.6035 127.034 21.8564 127.567 22.3339C128.1 22.8115 128.352 23.5981 128.352 24.6938V31.0148H127.315ZM124.145 30.0315C125.015 30.0315 125.688 29.7787 126.193 29.3011C126.698 28.8235 126.95 28.1492 126.95 27.2784V26.4356L125.548 26.4917C124.426 26.5198 123.641 26.7165 123.136 27.0255C122.631 27.3345 122.407 27.8121 122.407 28.4583C122.407 28.9639 122.547 29.3573 122.855 29.6101C123.164 29.891 123.585 30.0315 124.145 30.0315Z" fill="#F9F9F9"/>
<path d="M129.164 21.7725H130.65L132.67 27.054C133.119 28.262 133.399 29.1329 133.483 29.6667H133.539C133.623 29.3857 133.764 28.8801 133.988 28.2058C134.212 27.5035 134.998 25.3684 136.288 21.8006H137.802L133.848 32.3074C133.455 33.3469 133.006 34.0773 132.473 34.5268C131.941 34.9763 131.296 35.1729 130.538 35.1729C130.118 35.1729 129.697 35.1168 129.276 35.0325V33.9087C129.585 33.9649 129.921 34.0211 130.314 34.0211C131.268 34.0211 131.969 33.4873 132.361 32.3917L132.866 31.0713L129.164 21.7725Z" fill="#F9F9F9"/>
<path d="M86.253 22.6154C86.7018 22.9806 87.6273 23.7672 87.6273 25.2281C87.6273 26.6608 86.8139 27.3351 86.0006 27.9812C85.7482 28.2341 85.4677 28.515 85.4677 28.9364C85.4677 29.3578 85.7482 29.5825 85.9726 29.7792L86.6737 30.313C87.5151 31.0434 88.3004 31.6895 88.3004 33.038C88.3004 34.8641 86.5335 36.6901 83.224 36.6901C80.4194 36.6901 79.0732 35.3417 79.0732 33.9089C79.0732 33.2066 79.4098 32.2233 80.5597 31.5491C81.7657 30.8186 83.3923 30.7063 84.2617 30.6501C83.9813 30.313 83.6728 29.9478 83.6728 29.3297C83.6728 28.9926 83.7569 28.7959 83.8691 28.5712C83.6447 28.5993 83.4484 28.5993 83.2521 28.5993C81.2047 28.5993 80.0549 27.0822 80.0549 25.5652C80.0549 24.6662 80.4475 23.683 81.2889 22.9806C82.3827 22.0816 83.7008 21.9131 84.7385 21.9131H88.7211L87.487 22.6154H86.253ZM84.8788 31.212C84.7105 31.1839 84.6263 31.1839 84.43 31.1839C84.2618 31.1839 83.224 31.212 82.4107 31.4929C81.99 31.6333 80.756 32.1109 80.756 33.4875C80.756 34.8641 82.1022 35.8473 84.1496 35.8473C86.0006 35.8473 86.9822 34.9484 86.9822 33.7684C86.9822 32.7852 86.3652 32.2514 84.8788 31.212ZM85.4397 27.5317C85.8884 27.0822 85.9165 26.4642 85.9165 26.1271C85.9165 24.7224 85.0751 22.5592 83.4765 22.5592C82.9716 22.5592 82.4388 22.8121 82.1303 23.2054C81.7937 23.5987 81.7096 24.1325 81.7096 24.6381C81.7096 25.9304 82.4668 28.0936 84.1215 28.0936C84.6263 28.0936 85.1312 27.8408 85.4397 27.5317Z" fill="#F9F9F9"/>
<path d="M74.0809 30.9028C71.0239 30.9028 69.3691 28.5149 69.3691 26.3517C69.3691 23.8233 71.4445 21.6602 74.3613 21.6602C77.194 21.6602 78.9609 23.8795 78.9609 26.2113C78.9889 28.4868 77.222 30.9028 74.0809 30.9028ZM76.4928 29.3296C76.9696 28.7116 77.0818 27.925 77.0818 27.1945C77.0818 25.4808 76.2685 22.2501 73.8845 22.2501C73.2395 22.2501 72.6225 22.503 72.1457 22.8963C71.3885 23.5705 71.2482 24.4133 71.2482 25.2561C71.2482 27.1664 72.2018 30.3129 74.5296 30.3129C75.2868 30.341 76.0441 29.9477 76.4928 29.3296Z" fill="#F9F9F9"/>
<path d="M63.6209 30.9028C60.5639 30.9028 58.9092 28.5149 58.9092 26.3517C58.9092 23.8233 60.9846 21.6602 63.9014 21.6602C66.734 21.6602 68.5009 23.8795 68.5009 26.2113C68.529 28.4868 66.7621 30.9028 63.6209 30.9028ZM66.0329 29.3296C66.5096 28.7116 66.6218 27.925 66.6218 27.1945C66.6218 25.4808 65.8085 22.2501 63.4246 22.2501C62.7795 22.2501 62.1625 22.503 61.6857 22.8963C60.9285 23.5705 60.7883 24.4133 60.7883 25.2561C60.7883 27.1664 61.7418 30.3129 64.0696 30.3129C64.8269 30.341 65.5841 29.9477 66.0329 29.3296Z" fill="#F9F9F9"/>
<path d="M57.4502 30.5935L54.6736 31.2397C53.5518 31.4082 52.5422 31.5768 51.4764 31.5768C46.1196 31.5768 44.0723 27.6438 44.0723 24.5535C44.0723 20.789 46.961 17.2773 51.8971 17.2773C52.9348 17.2773 53.9445 17.4459 54.87 17.6987C56.3284 18.1201 57.0015 18.6258 57.4222 18.9068L55.8235 20.4519L55.1504 20.6204L55.6272 19.8338C54.9541 19.1877 53.7762 18.0078 51.4764 18.0078C48.4194 18.0078 46.0916 20.3395 46.0916 23.7388C46.0916 27.3909 48.7279 30.8183 52.9628 30.8183C54.1969 30.8183 54.8419 30.5654 55.4309 30.3407V27.1943L52.5141 27.3628L54.0566 26.52H58.1794L57.6746 26.9976C57.5343 27.11 57.5063 27.1662 57.4782 27.3066C57.4502 27.4752 57.4502 28.0371 57.4502 28.2337V30.5935V30.5935Z" fill="#F9F9F9"/>
<path d="M92.396 30.0317C91.7509 29.9755 91.6107 29.8631 91.6107 29.1046V28.8799V18.1202C91.6107 18.0921 91.6107 18.0359 91.6107 18.0078C91.6948 17.3335 91.8911 17.2212 92.4801 16.856H89.7316L88.2732 17.5583H89.7596V28.908V29.5541C89.7596 29.9474 89.6755 30.0036 89.2268 30.5936H92.6484L93.3776 30.1722C93.041 30.116 92.7325 30.0879 92.396 30.0317Z" fill="#F9F9F9"/>
<path d="M100.277 30.2284C100.052 30.3407 99.8562 30.4812 99.6318 30.5655C98.9867 30.8464 98.3417 30.9307 97.7527 30.9307C97.1357 30.9307 96.1821 30.9026 95.2005 30.1722C93.8263 29.217 93.2373 27.5595 93.2373 26.0987C93.2373 23.1208 95.6773 21.6318 97.6405 21.6318C98.3417 21.6318 99.0428 21.8004 99.6318 22.1656C100.585 22.8118 100.838 23.6265 100.978 24.0759L96.4626 25.9301L94.9762 26.0425C95.4529 28.4866 97.1076 29.9193 98.9587 29.9193C99.9403 29.9193 100.641 29.5822 101.315 29.2451L100.277 30.2284ZM98.4819 24.4693C98.8465 24.3288 99.0428 24.2164 99.0428 23.9355C99.0428 23.177 98.1734 22.278 97.1357 22.278C96.3504 22.278 94.9201 22.8679 94.9201 24.9468C94.9201 25.284 94.9481 25.6211 94.9762 25.9582L98.4819 24.4693Z" fill="#F9F9F9"/>
<path d="M102.155 21.8006V23.0648H101.987V21.8006H101.566V21.6602H102.548V21.8006H102.155Z" fill="#F9F9F9"/>
<path d="M103.864 23.0648V21.7725L103.471 23.0648H103.359L102.967 21.7725V23.0648H102.826V21.6602H103.079L103.443 22.7839L103.808 21.6602H104.06V23.0648H103.864Z" fill="#F9F9F9"/>
<path d="M47.9422 13.4848H46.9886C46.9886 13.3443 46.9045 12.9791 46.7082 12.3611H45.3059C45.1095 12.9791 45.0254 13.3443 45.0254 13.4848H44.1279C44.1279 13.4005 44.3523 12.7544 44.8291 11.5464C45.3059 10.3384 45.5302 9.66413 45.5302 9.55176H46.6801C46.6801 9.66413 46.9045 10.3103 47.3252 11.5183C47.7178 12.7263 47.9422 13.3724 47.9422 13.4848ZM46.5399 11.7711C46.2033 10.7317 46.0351 10.1698 46.0351 10.0855H45.979C45.979 10.1698 45.8107 10.7317 45.4461 11.7711H46.5399Z" fill="#F9F9FA"/>
<path d="M51.8132 13.4846H51.0559C51.0559 13.4003 50.7755 12.9789 50.2146 12.1642C49.6256 11.3214 49.3171 10.7595 49.2329 10.4505H49.1769C49.2329 10.9 49.261 11.2933 49.261 11.6585C49.261 12.1642 49.261 12.7542 49.3171 13.4846H48.5879C48.6159 12.8665 48.644 12.1642 48.644 11.4338C48.644 10.7034 48.6159 10.0853 48.5879 9.55153H49.4854C49.4854 9.6639 49.7378 10.0853 50.2426 10.8157C50.7755 11.6023 51.084 12.1361 51.1401 12.417H51.1962C51.1401 11.9675 51.112 11.5742 51.112 11.209C51.112 10.6753 51.084 10.1134 51.0559 9.52344H51.8132C51.7851 10.0291 51.7571 10.6472 51.7571 11.4057C51.7851 12.1923 51.7851 12.8665 51.8132 13.4846Z" fill="#F9F9FA"/>
<path d="M56.1881 11.3778C56.1881 11.9397 55.9917 12.4454 55.6271 12.8668C55.2625 13.2882 54.7577 13.5129 54.0846 13.5129C53.7761 13.5129 53.3835 13.5129 52.8506 13.4848C52.8786 12.8668 52.8786 12.1925 52.8786 11.434C52.8786 10.7036 52.8786 10.0855 52.8506 9.55176H53.3835C53.4676 9.55176 53.6078 9.55176 53.7761 9.55176C53.9444 9.55176 54.0566 9.55176 54.1127 9.55176C54.8419 9.55176 55.3747 9.72032 55.6832 10.0855C56.0198 10.4507 56.1881 10.8721 56.1881 11.3778ZM55.3467 11.5183C55.3467 11.125 55.2345 10.816 55.0101 10.535C54.7858 10.2822 54.4492 10.1417 53.9724 10.1417C53.8883 10.1417 53.7761 10.1417 53.6078 10.1698C53.6359 10.5631 53.6359 10.9845 53.6359 11.434C53.6359 11.9116 53.6359 12.3892 53.6639 12.8668C53.8041 12.8949 53.9163 12.8949 54.0566 12.8949C54.4773 12.8949 54.8138 12.7544 55.0101 12.5015C55.2625 12.2206 55.3467 11.9116 55.3467 11.5183Z" fill="#F9F9FA"/>
<path d="M60.1995 13.4848H59.302C59.0776 12.7825 58.8813 12.333 58.7691 12.1644C58.6569 11.9959 58.4326 11.9116 58.1802 11.9116C58.068 11.9116 57.9558 11.9116 57.8436 11.9116C57.8436 12.4173 57.8436 12.951 57.8717 13.4848H57.0303C57.0583 12.8668 57.0583 12.1925 57.0583 11.434C57.0583 10.7036 57.0583 10.0855 57.0303 9.55176H57.5631C57.6192 9.55176 57.7595 9.55176 57.9277 9.55176C58.1241 9.55176 58.2923 9.55176 58.4606 9.55176C59.3861 9.55176 59.8349 9.86078 59.8349 10.5069C59.8349 11.0126 59.5825 11.3497 59.0496 11.5464V11.6026C59.2459 11.6588 59.4422 11.8273 59.5825 12.0802C59.7507 12.3049 59.9471 12.7825 60.1995 13.4848ZM59.0776 10.7036C59.0776 10.3103 58.8252 10.1136 58.2923 10.1136C58.096 10.1136 57.9277 10.1136 57.7875 10.1698C57.8156 10.4788 57.8156 10.9002 57.8156 11.3778C57.9277 11.3778 58.0119 11.3778 58.096 11.3778C58.7691 11.3778 59.0776 11.1531 59.0776 10.7036Z" fill="#F9F9FA"/>
<path d="M64.5164 11.4619C64.5164 12.08 64.3201 12.5856 63.9555 13.007C63.5909 13.4003 63.1141 13.6251 62.5532 13.6251C62.0203 13.6251 61.5716 13.4284 61.235 13.0632C60.8704 12.698 60.7021 12.2204 60.7021 11.6305C60.7021 11.0124 60.8985 10.5067 61.2631 10.0853C61.6277 9.69203 62.1044 9.46729 62.6654 9.46729C63.1982 9.46729 63.647 9.66394 63.9835 10.0292C64.3481 10.3944 64.5164 10.8719 64.5164 11.4619ZM63.7031 11.5462C63.7031 11.1248 63.5909 10.7877 63.3946 10.5348C63.1702 10.282 62.9178 10.1415 62.6093 10.1415C62.3288 10.1415 62.0764 10.282 61.852 10.5348C61.6557 10.7877 61.5435 11.1248 61.5435 11.5462C61.5435 11.9676 61.6557 12.3047 61.8801 12.5575C62.1044 12.8104 62.3569 12.9508 62.6654 12.9508C62.9458 12.9508 63.1982 12.8104 63.4226 12.5575C63.5909 12.2766 63.7031 11.9395 63.7031 11.5462Z" fill="#F9F9FA"/>
<path d="M66.2281 13.4848H65.3867C65.4148 12.8668 65.4148 12.1644 65.4148 11.434C65.4148 10.7036 65.4148 10.0855 65.3867 9.55176H66.2281C66.2001 10.0574 66.2001 10.6755 66.2001 11.434C66.2001 12.1925 66.2001 12.8668 66.2281 13.4848Z" fill="#F9F9FA"/>
<path d="M70.6031 11.3778C70.6031 11.9397 70.4068 12.4454 70.0422 12.8668C69.6776 13.2882 69.1728 13.5129 68.4997 13.5129C68.1911 13.5129 67.7985 13.5129 67.2656 13.4848C67.2937 12.8668 67.2937 12.1925 67.2937 11.434C67.2937 10.7036 67.2937 10.0855 67.2656 9.55176H67.7985C67.8826 9.55176 68.0229 9.55176 68.1911 9.55176C68.3594 9.55176 68.4716 9.55176 68.5277 9.55176C69.2569 9.55176 69.7898 9.72032 70.0983 10.0855C70.4348 10.4507 70.6031 10.8721 70.6031 11.3778ZM69.7617 11.5183C69.7617 11.125 69.6495 10.816 69.4252 10.535C69.2008 10.2822 68.8642 10.1417 68.3875 10.1417C68.3033 10.1417 68.1911 10.1417 68.0229 10.1698C68.0509 10.5631 68.0509 10.9845 68.0509 11.434C68.0509 11.9116 68.0509 12.3892 68.079 12.8668C68.2192 12.8949 68.3314 12.8949 68.4716 12.8949C68.8923 12.8949 69.2288 12.7544 69.4252 12.5015C69.6776 12.2206 69.7617 11.9116 69.7617 11.5183Z" fill="#F9F9FA"/>
<path d="M76.3816 13.4848H75.4281C75.4281 13.3443 75.3439 12.9791 75.1476 12.3611H73.7453C73.549 12.9791 73.4649 13.3443 73.4649 13.4848H72.5674C72.5674 13.4005 72.7918 12.7544 73.2685 11.5464C73.7453 10.3384 73.9697 9.66413 73.9697 9.55176H75.1196C75.1196 9.66413 75.3439 10.3103 75.7646 11.5183C76.1853 12.7263 76.3816 13.3724 76.3816 13.4848ZM75.0074 11.7711C74.6708 10.7317 74.5026 10.1698 74.5026 10.0855H74.4465C74.4465 10.1698 74.2782 10.7317 73.9136 11.7711H75.0074Z" fill="#F9F9FA"/>
<path d="M79.9144 10.5912C79.9144 11.0688 79.7461 11.434 79.3815 11.6588C79.0169 11.8835 78.5962 11.9959 78.0634 11.9959C77.9792 11.9959 77.8951 11.9959 77.8671 11.9959C77.8671 12.3611 77.867 12.8668 77.8951 13.4848H77.0537C77.0818 12.8949 77.0818 12.2206 77.0818 11.434C77.0818 10.7036 77.0818 10.0855 77.0537 9.55176H77.5866C77.6707 9.55176 77.811 9.55176 78.0073 9.55176C78.2316 9.55176 78.3999 9.55176 78.5682 9.55176C78.9608 9.55176 79.2693 9.63604 79.5218 9.8046C79.7742 9.97316 79.9144 10.226 79.9144 10.5912ZM79.1291 10.7598C79.1291 10.3384 78.8487 10.1136 78.2597 10.1136C78.1195 10.1136 77.9792 10.1417 77.811 10.1698C77.839 10.5631 77.839 10.9845 77.839 11.4621C77.8951 11.4621 77.9512 11.4621 78.0073 11.4621C78.7645 11.4621 79.1291 11.2093 79.1291 10.7598Z" fill="#F9F9FA"/>
<path d="M83.5042 10.5912C83.5042 11.0688 83.336 11.434 82.9714 11.6588C82.6068 11.8835 82.1861 11.9959 81.6532 11.9959C81.5691 11.9959 81.4849 11.9959 81.4569 11.9959C81.4569 12.3611 81.4569 12.8668 81.4849 13.4848H80.6436C80.6716 12.8949 80.6716 12.2206 80.6716 11.434C80.6716 10.7036 80.6716 10.0855 80.6436 9.55176H81.1764C81.2606 9.55176 81.4008 9.55176 81.5971 9.55176C81.8215 9.55176 81.9898 9.55176 82.158 9.55176C82.5507 9.55176 82.8592 9.63604 83.1116 9.8046C83.3921 9.97316 83.5042 10.226 83.5042 10.5912ZM82.747 10.7598C82.747 10.3384 82.4665 10.1136 81.8776 10.1136C81.7373 10.1136 81.5971 10.1417 81.4288 10.1698C81.4569 10.5631 81.4569 10.9845 81.4569 11.4621C81.513 11.4621 81.5691 11.4621 81.6252 11.4621C82.3824 11.4621 82.747 11.2093 82.747 10.7598Z" fill="#F9F9FA"/>
<path d="M89.422 11.4619C89.422 12.08 89.2257 12.5856 88.8611 13.007C88.4965 13.4284 88.0197 13.6251 87.4588 13.6251C86.926 13.6251 86.4772 13.4284 86.1407 13.0632C85.7761 12.698 85.6078 12.2204 85.6078 11.6305C85.6078 11.0124 85.8041 10.5067 86.1687 10.0853C86.5333 9.69203 87.0101 9.46729 87.571 9.46729C88.1039 9.46729 88.5526 9.66394 88.8892 10.0292C89.2538 10.3944 89.422 10.8719 89.422 11.4619ZM88.5807 11.5462C88.5807 11.1248 88.4685 10.7877 88.2722 10.5348C88.0478 10.282 87.7954 10.1415 87.4869 10.1415C87.2064 10.1415 86.954 10.282 86.7296 10.5348C86.5333 10.7877 86.4211 11.1248 86.4211 11.5462C86.4211 11.9676 86.5333 12.3047 86.7577 12.5575C86.982 12.8104 87.2345 12.9508 87.543 12.9508C87.8234 12.9508 88.0758 12.8104 88.3002 12.5575C88.4965 12.2766 88.5807 11.9395 88.5807 11.5462Z" fill="#F9F9FA"/>
<path d="M93.5173 13.4846H92.76C92.76 13.4003 92.4796 12.9789 91.9187 12.1642C91.3297 11.3214 91.0212 10.7595 90.937 10.4505H90.881C90.9371 10.9 90.9651 11.2933 90.9651 11.6585C90.9651 12.1642 90.9651 12.7542 91.0212 13.4846H90.292C90.32 12.8665 90.3481 12.1642 90.3481 11.4338C90.3481 10.7034 90.32 10.0853 90.292 9.55153H91.1895C91.1895 9.6639 91.4419 10.0853 91.9467 10.8157C92.4796 11.6023 92.7881 12.1361 92.8442 12.417H92.9003C92.8442 11.9675 92.8161 11.5742 92.8161 11.209C92.8161 10.6753 92.8161 10.1134 92.76 9.52344H93.5173C93.4892 10.0291 93.4612 10.6472 93.4612 11.4057C93.4612 12.1923 93.4892 12.8665 93.5173 13.4846Z" fill="#F9F9FA"/>
<defs>
<linearGradient id="paint0_linear" x1="19.3154" y1="9.04948" x2="19.3154" y2="40.8799" gradientUnits="userSpaceOnUse">
<stop stop-color="#257CB0"/>
<stop offset="0.2863" stop-color="#4A93B5"/>
<stop offset="0.767" stop-color="#78BCBB"/>
<stop offset="1" stop-color="#89CFBD"/>
</linearGradient>
<linearGradient id="paint1_linear" x1="11.3058" y1="16.9489" x2="31.6334" y2="16.9489" gradientUnits="userSpaceOnUse">
<stop stop-color="#52C1AD"/>
<stop offset="1" stop-color="#DEE89A"/>
</linearGradient>
<linearGradient id="paint2_linear" x1="21.4672" y1="24.9648" x2="21.4672" y2="40.9955" gradientUnits="userSpaceOnUse">
<stop stop-color="#EC413D"/>
<stop offset="0.1668" stop-color="#DA4452"/>
<stop offset="0.5748" stop-color="#B0487A"/>
<stop offset="0.8619" stop-color="#954A92"/>
<stop offset="1" stop-color="#8A4A9D"/>
</linearGradient>
<linearGradient id="paint3_linear" x1="33.1745" y1="20.6898" x2="33.1745" y2="29.239" gradientUnits="userSpaceOnUse">
<stop stop-color="#F58879"/>
<stop offset="0.1194" stop-color="#F69079"/>
<stop offset="0.7128" stop-color="#FCB877"/>
<stop offset="1" stop-color="#FEC874"/>
</linearGradient>
</defs>
</svg>
