<svg width="144" height="47" viewBox="0 0 144 47" fill="none" xmlns="http://www.w3.org/2000/svg">
<path d="M143.972 40.6397C143.972 44.1365 141.13 47 137.598 47H6.37486C2.84247 47 0 44.164 0 40.6397V6.36027C0 2.8635 2.84247 0 6.37486 0H137.625C141.13 0 144 2.83596 144 6.36027V40.6397H143.972Z" fill="black"/>
<path d="M37.4703 31.0851C36.6989 32.7647 36.3407 33.5356 35.3764 35.0224C33.9988 37.115 32.0702 39.7032 29.7007 39.7032C27.5792 39.7307 27.0282 38.3265 24.1628 38.3265C21.2974 38.354 20.6912 39.7032 18.5697 39.7032C16.1727 39.6756 14.3543 37.3353 12.9767 35.2702C9.14696 29.4606 8.76124 22.6323 11.1032 18.9978C12.7838 16.4097 15.4288 14.9229 17.9085 14.9229C20.4433 14.9229 22.0413 16.2995 24.1352 16.2995C26.1741 16.2995 27.4139 14.9229 30.3344 14.9229C32.5386 14.9229 34.8805 16.1343 36.5611 18.1993C31.0783 21.173 31.96 28.9926 37.4703 31.0851Z" fill="white"/>
<path d="M28.1018 12.5832C29.1763 11.2065 29.9753 9.30664 29.6722 7.32422C27.9364 7.43435 25.8976 8.5357 24.7129 9.99499C23.6383 11.2891 22.7567 13.244 23.0873 15.1162C24.9884 15.1713 26.9446 14.0424 28.1018 12.5832Z" fill="white"/>
<path d="M49.1235 18.8882L43.6406 34.9954H46.1479L47.7734 30.0393H53.0634L54.7441 34.9954H57.3339L51.8236 18.8882H49.1235ZM50.4184 21.559C50.6113 22.2748 50.8041 23.0182 51.0521 23.8442L52.5399 28.112H48.352L49.8123 23.8167C50.0327 23.1008 50.2255 22.3574 50.4184 21.559Z" fill="white"/>
<path d="M64.4416 23.0732C62.7885 23.0732 61.4384 23.7065 60.5568 24.9455L60.4465 23.3486H58.2148V23.5413C58.2699 24.5325 58.2975 25.6339 58.2975 27.2033V39.621H60.7496V33.8389C61.4935 34.7475 62.7058 35.2707 64.0834 35.2707C65.5161 35.2707 66.811 34.72 67.7754 33.7012C68.8499 32.5724 69.4009 30.9479 69.4009 29.0205C69.4009 27.3134 68.905 25.8266 67.9958 24.7528C67.1141 23.6514 65.8467 23.0732 64.4416 23.0732ZM63.8354 25.0832C66.012 25.0832 66.9764 27.0932 66.9764 29.1031C66.9764 31.6638 65.7365 33.2607 63.7252 33.2607C62.3476 33.2607 61.1904 32.3246 60.8598 31.0029C60.8047 30.7827 60.7772 30.5349 60.7772 30.2045V28.2496C60.7772 28.0844 60.8047 27.8641 60.8598 27.6438C60.8598 27.5888 60.8874 27.5062 60.8874 27.4511C61.2456 26.0744 62.4578 25.0832 63.8354 25.0832Z" fill="white"/>
<path d="M77.0058 23.0732C75.3527 23.0732 74.0027 23.7065 73.121 24.9455L73.0108 23.3486H70.8066V23.5413C70.8617 24.5325 70.8893 25.6339 70.8893 27.2033V39.621H73.3414V33.8389C74.0853 34.7475 75.2976 35.2707 76.6752 35.2707C78.1079 35.2707 79.4028 34.72 80.3672 33.7012C81.4417 32.5724 81.9927 30.9479 81.9927 29.0205C81.9927 27.3134 81.4968 25.8266 80.5876 24.7528C79.6784 23.6514 78.411 23.0732 77.0058 23.0732ZM76.3997 25.0832C78.5763 25.0832 79.5406 27.0932 79.5406 29.1031C79.5406 31.6638 78.3008 33.2607 76.2895 33.2607C74.9394 33.2607 73.7547 32.3246 73.4241 31.0029C73.369 30.7827 73.3414 30.5349 73.3414 30.2045V28.2496C73.3414 28.0844 73.369 27.8641 73.4241 27.6438C73.4241 27.5888 73.4516 27.5062 73.4516 27.4511C73.8098 26.0744 75.0221 25.0832 76.3997 25.0832Z" fill="white"/>
<path d="M92.7374 25.7165C90.4506 24.8354 89.7342 24.1471 89.7342 22.853C89.7342 21.7792 90.5883 20.6778 92.517 20.6778C94.0874 20.6778 95.1068 21.2285 95.3824 21.3937L95.6028 21.5314L96.2916 19.4939L96.1538 19.4113C95.7405 19.1635 94.5834 18.6128 92.5996 18.6128C89.4862 18.6128 87.3096 20.4576 87.3096 23.0733C87.3096 25.1933 88.6597 26.6802 91.5802 27.7265C93.6466 28.4974 94.418 29.2959 94.418 30.645C94.418 32.1869 93.2333 33.123 91.3047 33.123C90.0648 33.123 88.7699 32.7651 87.778 32.1318L87.5576 31.9942L86.8964 34.0867L87.0066 34.1693C87.9158 34.7751 89.6516 35.2156 91.1394 35.2156C95.3273 35.2156 96.8151 32.655 96.8151 30.4798C96.8426 28.2771 95.6579 26.8729 92.7374 25.7165Z" fill="white"/>
<path d="M101.225 20.5674L98.8278 21.3108V23.3483H97.0645V25.3032H98.8278V31.278C98.8278 32.7097 99.1033 33.7285 99.6819 34.3617C100.233 34.9675 101.059 35.2979 102.051 35.2979C102.961 35.2979 103.622 35.1052 103.925 34.995L104.063 34.94L103.952 32.9851L103.732 33.0677C103.429 33.1503 103.098 33.2053 102.602 33.2053C101.666 33.2053 101.252 32.5996 101.252 31.1954V25.3032H104.2V23.3483H101.252V20.5674H101.225Z" fill="white"/>
<path d="M110.234 23.0732C106.818 23.0732 104.448 25.6063 104.448 29.2683C104.448 32.7926 106.763 35.2707 110.069 35.2707H110.096C112.879 35.2707 115.882 33.3158 115.882 29.0481C115.882 27.3134 115.359 25.8266 114.339 24.7253C113.265 23.6514 111.86 23.0732 110.234 23.0732ZM110.151 25.0006C112.356 25.0006 113.348 27.1482 113.348 29.1307C113.348 31.5812 111.997 33.3433 110.096 33.3433H110.069C108.223 33.3433 106.873 31.6087 106.873 29.1857C106.9 27.1207 107.892 25.0006 110.151 25.0006Z" fill="white"/>
<path d="M123.321 23.1834L123.183 23.1558C122.963 23.1008 122.798 23.0732 122.577 23.0732C121.31 23.0732 120.153 23.8166 119.519 25.0281L119.436 23.3211H117.26L117.287 23.5138C117.342 24.4775 117.37 25.5513 117.37 27.0106L117.342 34.9678H119.795V28.7452C119.795 28.4148 119.822 28.0844 119.85 27.809C120.125 26.3222 121.145 25.3585 122.412 25.3585C122.66 25.3585 122.853 25.3861 123.073 25.3861L123.321 25.4136V23.1834V23.1834Z" fill="white"/>
<path d="M128.803 23.0459C125.552 23.0459 123.293 25.6341 123.293 29.3511C123.293 32.9305 125.552 35.2433 129.051 35.2433C130.897 35.2433 132.165 34.8303 132.909 34.4999L133.046 34.4448L132.578 32.6276L132.385 32.7102C131.724 32.9856 130.842 33.2609 129.327 33.2609C128.28 33.2609 125.828 32.903 125.662 29.7366L133.542 29.7641L133.57 29.5989C133.625 29.3511 133.652 29.0207 133.652 28.5802C133.652 26.0195 132.385 23.0459 128.803 23.0459ZM128.638 24.9182C129.382 24.9182 129.988 25.1385 130.429 25.6065C131.118 26.3224 131.255 27.3687 131.255 27.8643H125.69C125.938 26.4601 126.82 24.9182 128.638 24.9182Z" fill="white"/>
<path d="M43.6427 7.90252C44.3315 7.81992 45.103 7.7373 45.9846 7.7373C47.5551 7.7373 48.6847 8.06772 49.4286 8.67346C50.2001 9.30673 50.6409 10.1878 50.6409 11.4268C50.6409 12.6658 50.2001 13.6846 49.4286 14.4005C48.6296 15.1163 47.3071 15.5018 45.6815 15.5018C44.8825 15.5018 44.2488 15.4743 43.6703 15.4192V7.90252H43.6427ZM44.7723 14.6483C45.0479 14.7033 45.4611 14.7033 45.8744 14.7033C48.2163 14.7033 49.4837 13.5194 49.4837 11.4819C49.4837 9.66467 48.3541 8.53579 46.0397 8.53579C45.4611 8.53579 45.0478 8.59085 44.7448 8.64591V14.6483H44.7723Z" fill="white"/>
<path d="M54.5534 15.5561C52.9279 15.5561 51.6329 14.4823 51.6329 12.7477C51.6329 10.9029 52.983 9.8291 54.6636 9.8291C56.3994 9.8291 57.5842 10.958 57.5842 12.6375C57.5842 14.6475 56.0137 15.5561 54.5534 15.5561ZM54.581 14.7852C55.628 14.7852 56.427 13.9041 56.427 12.6375C56.427 11.7014 55.9035 10.545 54.6085 10.545C53.3136 10.545 52.735 11.6188 52.735 12.6651C52.7626 13.9041 53.5065 14.7852 54.581 14.7852Z" fill="white"/>
<path d="M59.3479 9.93964L60.1745 12.7205C60.3398 13.3263 60.5051 13.9045 60.6153 14.4827H60.6429C60.7806 13.932 60.9735 13.3538 61.1939 12.7481L62.1858 9.96718H63.1226L64.0593 12.693C64.2797 13.3263 64.4726 13.932 64.6104 14.4827H64.6379C64.7481 13.932 64.9134 13.3538 65.1063 12.693L65.9604 9.93964H67.0625L65.1063 15.4188H64.0869L63.1501 12.8031C62.9297 12.1699 62.7644 11.6467 62.5991 10.9859H62.5715C62.4338 11.6467 62.2409 12.2249 62.0205 12.8031L61.0286 15.3913H60.0092L58.1632 9.91211H59.3479V9.93964Z" fill="white"/>
<path d="M68.1636 11.4263C68.1636 10.848 68.1636 10.4075 68.1085 9.93943H69.1004L69.1555 10.8205H69.183C69.4861 10.3249 70.2025 9.80176 71.1943 9.80176C72.0484 9.80176 73.3434 10.2423 73.3434 12.1421V15.4186H72.2413V12.2523C72.2413 11.3712 71.8831 10.6278 70.8362 10.6278C70.1198 10.6278 69.5412 11.0958 69.3484 11.6465C69.2933 11.7842 69.2657 11.9494 69.2657 12.1146V15.4186H68.1636V11.4263V11.4263Z" fill="white"/>
<path d="M75.1337 7.37891H76.2357V15.4187H75.1337V7.37891Z" fill="white"/>
<path d="M80.5632 15.5561C78.9376 15.5561 77.6427 14.4823 77.6427 12.7477C77.6427 10.9029 78.9927 9.8291 80.6734 9.8291C82.4092 9.8291 83.5939 10.958 83.5939 12.6375C83.5939 14.6475 82.0235 15.5561 80.5632 15.5561ZM80.5908 14.7852C81.6377 14.7852 82.4367 13.9041 82.4367 12.6375C82.4367 11.7014 81.9133 10.545 80.6183 10.545C79.3234 10.545 78.7448 11.6188 78.7448 12.6651C78.7723 13.9041 79.5162 14.7852 80.5908 14.7852Z" fill="white"/>
<path d="M89.2697 14.0976C89.2697 14.5657 89.2973 15.0338 89.3524 15.4192H88.3605L88.2503 14.7309H88.2228C87.8921 15.1714 87.2309 15.5569 86.3492 15.5569C85.1094 15.5569 84.4757 14.786 84.4757 13.9875C84.4757 12.6659 85.7706 11.95 88.1401 11.95V11.8399C88.1401 11.3993 88.0024 10.5733 86.7625 10.5733C86.1839 10.5733 85.6053 10.711 85.1645 10.9863L84.9165 10.3255C85.4125 10.0502 86.1564 9.85742 86.9278 9.85742C88.8014 9.85742 89.2422 10.9863 89.2422 12.0876V14.0976H89.2697ZM88.1952 12.6383C86.9829 12.6108 85.6053 12.8035 85.6053 13.8773C85.6053 14.5381 86.0737 14.841 86.6248 14.841C87.4238 14.841 87.9472 14.4005 88.1126 13.9324C88.1401 13.8223 88.1677 13.7121 88.1677 13.602V12.6383H88.1952Z" fill="white"/>
<path d="M96.2944 7.37909V13.9872C96.2944 14.4828 96.2944 15.0334 96.3495 15.3914H95.3577L95.3026 14.4277H95.275C94.9444 15.0334 94.2005 15.5015 93.2086 15.5015C91.7484 15.5015 90.5912 14.3727 90.5912 12.7206C90.5912 10.8759 91.8586 9.77452 93.3188 9.77452C94.2556 9.77452 94.8893 10.16 95.1648 10.6005H95.1924V7.35156H96.2944V7.37909ZM95.1924 12.17C95.1924 12.0323 95.1924 11.8671 95.1373 11.7294C94.9719 11.0961 94.3658 10.6005 93.5392 10.6005C92.3821 10.6005 91.7208 11.5091 91.7208 12.6931C91.7208 13.822 92.327 14.7306 93.5117 14.7306C94.2556 14.7306 94.9444 14.29 95.1373 13.5466C95.1648 13.409 95.1924 13.2713 95.1924 13.1061V12.17V12.17Z" fill="white"/>
<path d="M103.293 15.5561C101.667 15.5561 100.372 14.4823 100.372 12.7477C100.372 10.9029 101.722 9.8291 103.403 9.8291C105.139 9.8291 106.323 10.958 106.323 12.6375C106.323 14.6475 104.753 15.5561 103.293 15.5561ZM103.32 14.7852C104.367 14.7852 105.166 13.9041 105.166 12.6375C105.166 11.7014 104.643 10.545 103.348 10.545C102.053 10.545 101.474 11.6188 101.474 12.6651C101.474 13.9041 102.246 14.7852 103.32 14.7852Z" fill="white"/>
<path d="M107.7 11.4263C107.7 10.848 107.7 10.4075 107.645 9.93943H108.637L108.692 10.8205H108.719C109.022 10.3249 109.739 9.80176 110.73 9.80176C111.585 9.80176 112.88 10.2423 112.88 12.1421V15.4186H111.777V12.2523C111.777 11.3712 111.419 10.6278 110.372 10.6278C109.656 10.6278 109.077 11.0958 108.884 11.6465C108.829 11.7842 108.802 11.9494 108.802 12.1146V15.4186H107.7V11.4263V11.4263Z" fill="white"/>
<path d="M118.694 8.64648V9.96811H120.292V10.7391H118.694V13.6852C118.694 14.3735 118.915 14.759 119.521 14.759C119.824 14.759 119.989 14.7314 120.154 14.7039L120.21 15.4749C119.989 15.5299 119.659 15.6125 119.218 15.6125C118.694 15.6125 118.281 15.4473 118.033 15.1995C117.73 14.8966 117.592 14.401 117.592 13.7678V10.7941H116.655V10.0232H117.592V9.00444L118.694 8.64648Z" fill="white"/>
<path d="M121.532 7.37891H122.634V10.7931H122.662C122.827 10.5178 123.102 10.2424 123.461 10.1047C123.791 9.91201 124.177 9.82941 124.59 9.82941C125.417 9.82941 126.712 10.2699 126.712 12.1698V15.4187H125.61V12.2799C125.61 11.3988 125.251 10.6554 124.205 10.6554C123.488 10.6554 122.937 11.096 122.717 11.6466C122.662 11.7843 122.634 11.922 122.634 12.1147V15.4187H121.532V7.37891Z" fill="white"/>
<path d="M129.135 12.858C129.163 14.2072 130.1 14.7578 131.202 14.7578C132.001 14.7578 132.497 14.6202 132.882 14.4825L133.075 15.1708C132.69 15.336 132.001 15.5288 131.036 15.5288C129.163 15.5288 128.033 14.3999 128.033 12.7754C128.033 11.1234 129.135 9.80176 130.899 9.80176C132.882 9.80176 133.406 11.3712 133.406 12.3899C133.406 12.5827 133.406 12.7479 133.378 12.858H129.135ZM132.359 12.1421C132.359 11.5088 132.056 10.5176 130.844 10.5176C129.714 10.5176 129.246 11.4538 129.135 12.1421H132.359Z" fill="white"/>
</svg>
