<svg width="431" height="418" viewBox="0 0 431 418" fill="none" xmlns="http://www.w3.org/2000/svg">
<path d="M203.817 0.106786C220.611 -0.231042 237.239 0.106786 253.867 2.97832C269.997 5.84986 285.461 10.2416 300.593 16.4914C303.42 17.6738 303.752 18.5184 301.923 21.221C291.281 36.7611 280.639 52.3012 270.329 68.1791C268.5 71.0507 266.838 70.7128 264.011 69.8683C219.946 57.0308 177.211 59.5645 137.47 83.5503C101.553 105.171 75.7792 135.914 67.4651 178.48C57.1556 229.999 70.7907 274.761 108.038 311.584C132.149 335.57 161.082 350.097 194.671 354.151C219.613 357.191 244.057 355.164 268.002 346.718C270.995 345.705 272.657 346.043 274.487 348.745C284.796 364.285 295.105 379.657 305.581 394.859C307.577 397.73 306.912 398.575 304.085 399.926C282.136 409.554 259.188 415.128 235.41 417.155C234.412 417.155 233.249 416.649 232.75 418C221.443 418 209.969 418 198.662 418C193.175 415.973 187.355 416.48 181.701 415.297C98.8924 400.095 39.5297 354.319 11.7606 273.072C-12.3504 202.635 1.11839 136.42 47.5112 78.4829C82.0979 35.2409 127.659 10.5795 181.701 1.79593C189.017 1.12027 196.5 0.782442 203.817 0.106786Z" fill="white" fill-opacity="0.15"/>
<path d="M430.339 209.811C429.172 279.085 400.173 333.997 346.007 375.73C343.507 377.758 342.34 377.42 340.507 374.717C330.174 359.341 319.841 344.135 309.341 329.097C307.508 326.394 307.508 325.211 310.174 323.015C334.507 303.584 353.34 279.761 361.34 249.179C375.173 196.633 364.673 149.831 327.007 110.125C320.841 103.535 314.007 97.4528 306.674 92.2151C304.508 90.6944 304.008 89.5117 305.674 87.1463C316.341 71.7709 327.007 56.3955 337.507 40.8512C339.007 38.4857 340.174 38.3168 342.34 40.0064C390.173 74.9811 419.839 121.276 428.672 180.75C429.339 185.312 430.006 190.043 430.172 194.774C430.506 199.843 430.339 204.912 430.339 209.811Z" fill="white" fill-opacity="0.15"/>
<path d="M215.325 295.772C174.094 295.772 138.35 269.236 128.042 231.206C115.407 184.218 143.504 135.708 190.387 123.369C227.462 113.566 266.032 126.412 287.812 155.822C320.065 199.261 306.432 260.109 258.717 285.124C245.251 292.392 230.787 296.11 215.325 295.772ZM215.658 146.695C203.854 146.525 192.548 149.568 182.74 155.315C150.985 174.245 141.841 214.98 163.454 243.375C180.08 265.01 202.191 272.785 228.459 268.222C263.04 262.306 285.983 225.797 276.673 191.824C269.69 165.794 244.42 147.033 215.658 146.695Z" fill="white" fill-opacity="0.15"/>
</svg>
