<svg width="331" height="96" viewBox="0 0 331 96" fill="none" xmlns="http://www.w3.org/2000/svg">
<path d="M30.362 30.0194L46.4121 46.1242C47.5003 47.2177 47.5003 48.988 46.4121 50.0788L30.3411 66.4674L30.362 30.0194ZM35.9099 22.1363L53.8917 32.4979L60.2727 36.1739L54.2822 42.1852C53.194 43.2761 51.4289 43.2761 50.3407 42.1852L31.0493 22.8366C32.2 21.6494 34.2775 21.1704 35.9099 22.1363ZM33.8948 74.4287C32.8144 74.4287 31.8537 73.947 31.1638 73.2519L50.3407 54.0178C51.4289 52.927 53.194 52.927 54.2822 54.0178L60.1868 59.9432L35.8292 73.9106C35.2486 74.249 34.5795 74.4287 33.8948 74.4287ZM74.8389 51.3649L65.1854 57.0742L58.2108 50.0788C57.1226 48.988 57.1226 47.2177 58.2108 46.1242L65.2635 39.0507L74.8701 44.708L74.9326 44.7418C76.1484 45.4031 76.9008 46.6605 76.9008 48.0273C76.9008 49.4046 76.138 50.6672 74.8389 51.3649ZM77.8693 39.889L38.7085 17.3225C37.2532 16.4582 35.587 16 33.8948 16C29.5367 16 25.7201 18.9705 24.8375 22.9876C24.7412 23.3729 24.5173 24.3726 24.5381 25.3229L24.5407 70.7761C24.572 71.6977 24.8219 72.9447 24.8609 73.0957C25.9492 77.1623 29.6642 80 33.8948 80C35.5636 80 37.2012 79.5574 38.6096 78.7347L77.786 56.2698C80.8268 54.6374 82.7169 51.4899 82.7169 48.0534C82.7169 44.6533 80.8606 41.5266 77.8693 39.889Z" fill="white"/>
<path d="M121.714 23.9451C121.714 25.9161 121.131 27.4849 119.962 28.6562C118.633 30.0486 116.904 30.7448 114.778 30.7448C112.739 30.7448 111.008 30.0391 109.585 28.6256C108.157 27.2144 107.447 25.4621 107.447 23.3736C107.447 21.2826 108.157 19.5327 109.585 18.1192C111.008 16.708 112.739 16 114.778 16C115.787 16 116.756 16.1976 117.674 16.5927C118.593 16.9879 119.329 17.5124 119.882 18.1686L118.64 19.4104C117.707 18.2956 116.42 17.7358 114.778 17.7358C113.292 17.7358 112.008 18.258 110.923 19.3022C109.839 20.3489 109.298 21.7036 109.298 23.3736C109.298 25.0411 109.839 26.3982 110.923 27.4425C112.008 28.4892 113.292 29.009 114.778 29.009C116.354 29.009 117.667 28.4845 118.72 27.4331C119.402 26.7487 119.795 25.7985 119.901 24.5754H114.778V22.8796H121.616C121.681 23.2489 121.714 23.6041 121.714 23.9451Z" fill="white"/>
<path d="M121.714 23.9451C121.714 25.9161 121.131 27.4849 119.962 28.6562C118.633 30.0486 116.904 30.7448 114.778 30.7448C112.739 30.7448 111.008 30.0391 109.585 28.6256C108.157 27.2144 107.447 25.4621 107.447 23.3736C107.447 21.2826 108.157 19.5327 109.585 18.1192C111.008 16.708 112.739 16 114.778 16C115.787 16 116.756 16.1976 117.674 16.5927C118.593 16.9879 119.329 17.5124 119.882 18.1686L118.64 19.4104C117.707 18.2956 116.42 17.7358 114.778 17.7358C113.292 17.7358 112.008 18.258 110.923 19.3022C109.839 20.3489 109.298 21.7036 109.298 23.3736C109.298 25.0411 109.839 26.3982 110.923 27.4425C112.008 28.4892 113.292 29.009 114.778 29.009C116.354 29.009 117.667 28.4845 118.72 27.4331C119.402 26.7487 119.795 25.7985 119.901 24.5754H114.778V22.8796H121.616C121.681 23.2489 121.714 23.6041 121.714 23.9451Z" fill="white"/>
<path d="M132.555 18.0512H126.13V22.5247H131.925V24.2205H126.13V28.694H132.555V30.4298H124.316V16.3178H132.555V18.0512Z" fill="white"/>
<path d="M132.555 18.0512H126.13V22.5247H131.925V24.2205H126.13V28.694H132.555V30.4298H124.316V16.3178H132.555V18.0512Z" fill="white"/>
<path d="M140.202 30.4292H138.388V18.0506H134.447V16.3172H144.144V18.0506H140.202V30.4292Z" fill="white"/>
<path d="M140.202 30.4292H138.388V18.0506H134.447V16.3172H144.144V18.0506H140.202V30.4292Z" fill="white"/>
<path d="M151.16 16.3172H152.974V30.4292H151.16V16.3172Z" fill="white"/>
<path d="M161.016 30.4292H159.203V18.0506H155.261V16.3172H164.958V18.0506H161.016V30.4292Z" fill="white"/>
<path d="M161.016 30.4292H159.203V18.0506H155.261V16.3172H164.958V18.0506H161.016V30.4292Z" fill="white"/>
<path d="M174.307 27.4237C175.351 28.4821 176.629 29.009 178.141 29.009C179.653 29.009 180.93 28.4821 181.975 27.4237C183.019 26.3653 183.543 25.0153 183.543 23.3736C183.543 21.7319 183.019 20.3795 181.975 19.3234C180.93 18.265 179.653 17.7358 178.141 17.7358C176.629 17.7358 175.351 18.265 174.307 19.3234C173.265 20.3795 172.741 21.7319 172.741 23.3736C172.741 25.0153 173.265 26.3653 174.307 27.4237ZM183.315 28.6044C181.928 30.0321 180.204 30.7448 178.141 30.7448C176.078 30.7448 174.354 30.0321 172.969 28.6044C171.581 27.1791 170.89 25.4363 170.89 23.3736C170.89 21.3109 171.581 19.5657 172.969 18.1404C174.354 16.715 176.078 16 178.141 16C180.192 16 181.911 16.7174 183.306 18.1498C184.698 19.5821 185.394 21.3226 185.394 23.3736C185.394 25.4363 184.701 27.1791 183.315 28.6044Z" fill="white"/>
<path d="M174.307 27.4237C175.351 28.4821 176.629 29.009 178.141 29.009C179.653 29.009 180.93 28.4821 181.975 27.4237C183.019 26.3653 183.543 25.0153 183.543 23.3736C183.543 21.7319 183.019 20.3795 181.975 19.3234C180.93 18.265 179.653 17.7358 178.141 17.7358C176.629 17.7358 175.351 18.265 174.307 19.3234C173.265 20.3795 172.741 21.7319 172.741 23.3736C172.741 25.0153 173.265 26.3653 174.307 27.4237ZM183.315 28.6044C181.928 30.0321 180.204 30.7448 178.141 30.7448C176.078 30.7448 174.354 30.0321 172.969 28.6044C171.581 27.1791 170.89 25.4363 170.89 23.3736C170.89 21.3109 171.581 19.5657 172.969 18.1404C174.354 16.715 176.078 16 178.141 16C180.192 16 181.911 16.7174 183.306 18.1498C184.698 19.5821 185.394 21.3226 185.394 23.3736C185.394 25.4363 184.701 27.1791 183.315 28.6044Z" fill="white"/>
<path d="M187.939 30.4292V16.3172H190.145L197.004 27.294H197.084L197.004 24.5751V16.3172H198.82V30.4292H196.926L189.75 18.9185H189.673L189.75 21.6398V30.4292H187.939Z" fill="white"/>
<path d="M187.939 30.4292V16.3172H190.145L197.004 27.294H197.084L197.004 24.5751V16.3172H198.82V30.4292H196.926L189.75 18.9185H189.673L189.75 21.6398V30.4292H187.939Z" fill="white"/>
<path d="M261.7 70.4132H266.089V41.0108H261.7V70.4132ZM301.23 51.6019L296.199 64.3498H296.049L290.827 51.6019H286.1L293.929 69.4183L289.468 79.3297H294.042L306.11 51.6019H301.23ZM276.341 67.0734C274.902 67.0734 272.898 66.356 272.898 64.5755C272.898 62.3082 275.393 61.438 277.55 61.438C279.479 61.438 280.389 61.8543 281.56 62.4211C281.219 65.1447 278.874 67.0734 276.341 67.0734ZM276.87 50.9598C273.693 50.9598 270.4 52.3592 269.041 55.4615L272.935 57.0868C273.768 55.4615 275.318 54.93 276.946 54.93C279.215 54.93 281.523 56.2918 281.56 58.7143V59.0154C280.765 58.5615 279.065 57.8817 276.983 57.8817C272.785 57.8817 268.509 60.1891 268.509 64.5003C268.509 68.4352 271.952 70.9706 275.81 70.9706C278.761 70.9706 280.389 69.6465 281.41 68.0941H281.56V70.3638H285.796V59.0907C285.796 53.8716 281.901 50.9598 276.87 50.9598M249.747 55.1816H243.505V45.1033H249.747C253.028 45.1033 254.891 47.8199 254.891 50.1413C254.891 52.4204 253.028 55.1816 249.747 55.1816ZM249.634 41.0108H239.118V70.4132H243.505V59.2741H249.634C254.498 59.2741 259.28 55.7508 259.28 50.1413C259.28 44.5318 254.498 41.0108 249.634 41.0108M192.29 67.0781C189.258 67.0781 186.72 64.5403 186.72 61.0546C186.72 57.5313 189.258 54.9535 192.29 54.9535C195.284 54.9535 197.631 57.5313 197.631 61.0546C197.631 64.5403 195.284 67.0781 192.29 67.0781ZM197.33 53.2483H197.177C196.192 52.0746 194.298 51.0139 191.911 51.0139C186.908 51.0139 182.324 55.4074 182.324 61.0546C182.324 66.6618 186.908 71.02 191.911 71.02C194.298 71.02 196.192 69.9593 197.177 68.7457H197.33V70.1874C197.33 74.0141 195.284 76.0604 191.986 76.0604C189.296 76.0604 187.628 74.127 186.946 72.4971L183.119 74.0894C184.218 76.7425 187.137 80 191.986 80C197.14 80 201.498 76.9683 201.498 69.5806V51.6183H197.33V53.2483ZM204.53 70.4132H208.926V41.0084H204.53V70.4132ZM215.403 60.7135C215.29 56.8492 218.397 54.8782 220.632 54.8782C222.377 54.8782 223.854 55.7485 224.345 56.9997L215.403 60.7135ZM229.045 57.3784C228.212 55.144 225.672 51.0139 220.481 51.0139C215.328 51.0139 211.047 55.0664 211.047 61.017C211.047 66.6241 215.29 71.02 220.973 71.02C225.559 71.02 228.212 68.2164 229.31 66.5865L225.9 64.3121C224.764 65.9797 223.209 67.0781 220.973 67.0781C218.738 67.0781 217.146 66.055 216.123 64.0487L229.499 58.5144L229.045 57.3784ZM122.48 54.0832V58.3263H132.634C132.33 60.7136 131.535 62.4564 130.324 63.6677C128.845 65.1471 126.533 66.777 122.48 66.777C116.226 66.777 111.339 61.7367 111.339 55.485C111.339 49.2311 116.226 44.1931 122.48 44.1931C125.853 44.1931 128.315 45.5196 130.133 47.2248L133.128 44.2307C130.587 41.8058 127.217 39.9477 122.48 39.9477C113.916 39.9477 106.717 46.9214 106.717 55.485C106.717 64.0487 113.916 71.02 122.48 71.02C127.102 71.02 130.587 69.503 133.316 66.6618C136.122 63.8582 136.992 59.9186 136.992 56.734C136.992 55.7485 136.917 54.8406 136.764 54.0832H122.48ZM148.538 67.0781C145.506 67.0781 142.891 64.5779 142.891 61.017C142.891 57.416 145.506 54.9535 148.538 54.9535C151.567 54.9535 154.183 57.416 154.183 61.017C154.183 64.5779 151.567 67.0781 148.538 67.0781ZM148.538 51.0139C143.004 51.0139 138.495 55.2193 138.495 61.017C138.495 66.777 143.004 71.02 148.538 71.02C154.07 71.02 158.579 66.777 158.579 61.017C158.579 55.2193 154.07 51.0139 148.538 51.0139ZM170.442 67.0781C167.41 67.0781 164.795 64.5779 164.795 61.017C164.795 57.416 167.41 54.9535 170.442 54.9535C173.474 54.9535 176.087 57.416 176.087 61.017C176.087 64.5779 173.474 67.0781 170.442 67.0781ZM170.442 51.0139C164.91 51.0139 160.401 55.2193 160.401 61.017C160.401 66.777 164.91 71.02 170.442 71.02C175.974 71.02 180.483 66.777 180.483 61.017C180.483 55.2193 175.974 51.0139 170.442 51.0139Z" fill="white"/>
</svg>
