<svg width="147" height="25" viewBox="0 0 147 25" fill="none" xmlns="http://www.w3.org/2000/svg">
<path d="M133.28 0.00998405C134.29 -0.010016 135.29 0.00998405 136.29 0.179984C137.26 0.349984 138.19 0.609984 139.1 0.979984C139.27 1.04998 139.29 1.09998 139.18 1.25998C138.54 2.17998 137.9 3.09998 137.28 4.03998C137.17 4.20998 137.07 4.18998 136.9 4.13998C134.25 3.37998 131.68 3.52998 129.29 4.94998C127.13 6.22998 125.58 8.04998 125.08 10.57C124.46 13.62 125.28 16.27 127.52 18.45C128.97 19.87 130.71 20.73 132.73 20.97C134.23 21.15 135.7 21.03 137.14 20.53C137.32 20.47 137.42 20.49 137.53 20.65C138.15 21.57 138.77 22.48 139.4 23.38C139.52 23.55 139.48 23.6 139.31 23.68C137.99 24.25 136.61 24.58 135.18 24.7C135.12 24.7 135.05 24.67 135.02 24.75C134.34 24.75 133.65 24.75 132.97 24.75C132.64 24.63 132.29 24.66 131.95 24.59C126.97 23.69 123.4 20.98 121.73 16.17C120.28 12 121.09 8.07998 123.88 4.64998C125.96 2.08998 128.7 0.629984 131.95 0.109984C132.39 0.069984 132.84 0.049984 133.28 0.00998405Z" fill="#DA1A5D"/>
<path d="M39.66 5.38C39.66 5.55 39.66 5.64999 39.66 5.74C39.66 11.34 39.66 16.94 39.66 22.53C39.66 23.82 38.87 24.61 37.58 24.61C37.06 24.61 36.54 24.6 36.02 24.62C35.79 24.63 35.74 24.55 35.74 24.33C35.75 21.01 35.74 17.7 35.74 14.38C35.74 9.73 35.74 5.09 35.73 0.439995C35.73 0.169995 35.8 0.119995 36.06 0.119995C37.13 0.129995 38.2 0.129995 39.27 0.119995C39.76 0.119995 40.15 0.299995 40.46 0.689995C44.02 5.28 47.59 9.87 51.16 14.46C52.38 16.03 53.61 17.61 54.83 19.18C54.87 19.23 54.91 19.27 54.99 19.37C54.99 19.22 54.99 19.13 54.99 19.03C54.99 13.4 54.99 7.76 54.99 2.13C54.99 0.909995 55.78 0.119995 56.99 0.119995C57.55 0.119995 58.1 0.129995 58.66 0.119995C58.83 0.119995 58.89 0.169995 58.87 0.329995C58.86 0.369995 58.87 0.419995 58.87 0.459995C58.87 8.38999 58.87 16.33 58.88 24.26C58.88 24.52 58.83 24.61 58.55 24.6C57.49 24.58 56.43 24.58 55.37 24.6C54.84 24.61 54.44 24.41 54.12 23.99C52.13 21.42 50.14 18.85 48.15 16.28C45.38 12.7 42.6 9.13 39.83 5.55C39.78 5.53 39.75 5.49 39.66 5.38Z" fill="#1D96D2"/>
<path d="M0.01 12.36C0.01 8.4 0.01 4.43001 0 0.470005C0 0.200005 0.06 0.130005 0.34 0.130005C5.82 0.140005 11.3 0.150005 16.78 0.130005C18.19 0.130005 19.54 0.320005 20.77 1.04C22.75 2.2 24.08 3.86 24.39 6.18C24.77 9.02 23.69 11.26 21.39 12.91C20.08 13.85 18.59 14.21 17 14.21C12.74 14.21 8.48 14.21 4.22 14.2C3.97 14.2 3.92 14.27 3.92 14.51C3.93 17.22 3.93 19.94 3.93 22.65C3.93 23.78 3.09 24.62 1.95 24.62C1.4 24.62 0.85 24.61 0.31 24.63C0.06 24.63 0 24.57 0 24.33C0.01 22.13 0.01 19.93 0.01 17.73C0.01 15.94 0.01 14.15 0.01 12.36ZM10.77 10.54C12.82 10.54 14.87 10.54 16.92 10.54C17.2 10.54 17.48 10.52 17.75 10.49C19.34 10.28 20.68 8.81001 20.69 7.26C20.71 5.35001 19.16 3.81 17.2 3.81C12.86 3.81 8.52 3.81 4.18 3.8C3.94 3.8 3.91 3.88 3.91 4.09C3.92 6.15 3.92 8.2 3.91 10.26C3.91 10.48 3.96 10.54 4.19 10.54C6.39 10.53 8.58 10.54 10.77 10.54Z" fill="#1D96D2"/>
<path d="M106.57 5.46C106.57 7.02 106.56 8.59 106.58 10.15C106.59 10.76 106.47 11.33 106.1 11.79C105.78 12.19 105.33 12.47 104.79 12.57C104.34 12.65 103.88 12.61 103.42 12.62C103.31 12.62 103.27 12.58 103.28 12.48C103.28 12.41 103.28 12.34 103.28 12.26C103.28 9.58 103.28 6.9 103.28 4.23C103.28 3.89 103.28 3.88 102.93 3.95C99.48 4.65 97 6.58 95.96 9.95C94.92 13.33 95.86 16.3 98.51 18.67C100.56 20.51 102.99 21.2 105.69 20.88C109.09 20.48 111.51 18.65 112.98 15.57C113.39 14.72 113.54 13.8 113.61 12.86C113.62 12.66 113.57 12.6 113.36 12.6C112.71 12.61 112.07 12.59 111.42 12.61C111.17 12.62 111.11 12.54 111.13 12.31C111.16 11.98 111.12 11.65 111.17 11.31C111.29 10.52 111.95 9.93 112.75 9.92C114.22 9.91 115.7 9.92 117.17 9.92C117.29 9.92 117.4 9.89 117.4 10.08C117.37 11.37 117.46 12.67 117.29 13.96C116.94 16.56 115.83 18.79 114.02 20.67C111.99 22.78 109.51 24.05 106.62 24.47C100.75 25.32 95.35 22.47 93.02 17.51C90.96 13.19 91.43 9 94.27 5.16C96.38 2.32 99.29 0.750003 102.78 0.250003C103.96 0.0800034 105.14 0.100003 106.33 0.240003C106.53 0.260003 106.57 0.350003 106.57 0.530003C106.56 2.18 106.57 3.82 106.57 5.46Z" fill="#DA1A5D"/>
<path d="M77.3 5.5C77.3 7.13 77.29 8.75 77.3 10.38C77.3 10.93 77.13 11.44 76.8 11.83C76.38 12.33 75.79 12.62 75.1 12.63C74.8 12.63 74.51 12.62 74.21 12.63C74.06 12.64 74.01 12.58 74.01 12.43C74.02 11.97 74.01 11.51 74.01 11.06C74.01 8.78 74.01 6.49 74.02 4.21C74.02 3.95 73.98 3.88 73.7 3.94C70.63 4.51 68.32 6.16 67.05 8.99C65.67 12.08 66.1 15.05 68.27 17.68C69.65 19.36 71.43 20.43 73.59 20.8C78.41 21.64 82.16 19.02 83.69 15.61C84.08 14.74 84.27 13.82 84.33 12.87C84.34 12.64 84.26 12.6 84.06 12.61C83.41 12.62 82.77 12.61 82.12 12.62C81.94 12.62 81.86 12.58 81.87 12.38C81.89 12.11 81.87 11.84 81.87 11.57C81.88 10.64 82.57 9.93 83.51 9.93C84.96 9.93 86.4 9.93 87.85 9.92C88.06 9.92 88.12 9.98 88.12 10.19C88.1 11.34 88.16 12.49 88.04 13.64C87.8 15.99 86.92 18.07 85.43 19.88C83.27 22.52 80.47 24.07 77.09 24.5C73.47 24.96 70.16 24.14 67.26 21.89C64.69 19.89 63.09 17.28 62.65 14.04C62.15 10.38 63.17 7.14 65.63 4.38C67.73 2.03 70.38 0.690003 73.49 0.250003C74.68 0.0800034 75.87 0.100003 77.06 0.240003C77.25 0.260003 77.29 0.340003 77.29 0.520003C77.3 2.18 77.3 3.84 77.3 5.5Z" fill="#1D96D2"/>
<path d="M32.06 13.18C32.06 16.89 32.06 20.6 32.07 24.31C32.07 24.55 32.02 24.64 31.77 24.63C31.21 24.61 30.66 24.62 30.1 24.62C28.99 24.62 28.15 23.79 28.15 22.68C28.15 15.25 28.15 7.81998 28.14 0.38998C28.14 0.19998 28.18 0.11998 28.39 0.12998C28.98 0.13998 29.58 0.12998 30.17 0.13998C31.22 0.14998 32.07 0.99998 32.07 2.04998C32.06 5.75998 32.06 9.46998 32.06 13.18Z" fill="#1E96D2"/>
<path d="M146.92 12.42C146.85 16.52 145.11 19.77 141.86 22.24C141.71 22.36 141.64 22.34 141.53 22.18C140.91 21.27 140.29 20.37 139.66 19.48C139.55 19.32 139.55 19.25 139.71 19.12C141.17 17.97 142.3 16.56 142.78 14.75C143.61 11.64 142.98 8.87 140.72 6.52C140.35 6.13 139.94 5.77 139.5 5.46C139.37 5.37 139.34 5.3 139.44 5.16C140.08 4.25 140.72 3.34 141.35 2.42C141.44 2.28 141.51 2.27 141.64 2.37C144.51 4.44 146.29 7.18 146.82 10.7C146.86 10.97 146.9 11.25 146.91 11.53C146.93 11.83 146.92 12.13 146.92 12.42Z" fill="#1D96D2"/>
<path d="M134 17.5C131.52 17.5 129.37 15.93 128.75 13.68C127.99 10.9 129.68 8.03001 132.5 7.30001C134.73 6.72001 137.05 7.48001 138.36 9.22001C140.3 11.79 139.48 15.39 136.61 16.87C135.8 17.3 134.93 17.52 134 17.5ZM134.02 8.68001C133.31 8.67001 132.63 8.85001 132.04 9.19001C130.13 10.31 129.58 12.72 130.88 14.4C131.88 15.68 133.21 16.14 134.79 15.87C136.87 15.52 138.25 13.36 137.69 11.35C137.27 9.81001 135.75 8.70001 134.02 8.68001Z" fill="#1E96D2"/>
</svg>
