<svg width="120" height="21" viewBox="0 0 120 21" fill="none" xmlns="http://www.w3.org/2000/svg">
<path d="M108.857 0.00516349C109.682 -0.0111717 110.499 0.00516349 111.316 0.144012C112.108 0.282861 112.868 0.495218 113.611 0.797418C113.75 0.854591 113.766 0.895429 113.676 1.02611C113.154 1.77753 112.631 2.52894 112.124 3.29669C112.035 3.43554 111.953 3.41921 111.814 3.37837C109.65 2.75763 107.551 2.88015 105.599 4.03994C103.834 5.08539 102.568 6.57189 102.16 8.63012C101.654 11.1212 102.323 13.2856 104.153 15.0662C105.337 16.226 106.758 16.9284 108.408 17.1244C109.633 17.2714 110.834 17.1734 112.01 16.765C112.157 16.716 112.239 16.7323 112.329 16.863C112.835 17.6144 113.341 18.3577 113.856 19.0928C113.954 19.2316 113.921 19.2725 113.782 19.3378C112.704 19.8034 111.577 20.0729 110.409 20.1709C110.36 20.1709 110.303 20.1464 110.279 20.2117C109.723 20.2117 109.16 20.2117 108.604 20.2117C108.335 20.1137 108.049 20.1382 107.771 20.0811C103.704 19.346 100.788 17.1326 99.4239 13.204C98.2396 9.79808 98.9011 6.59639 101.18 3.79492C102.879 1.70402 105.117 0.511553 107.771 0.0868392C108.13 0.0541689 108.498 0.0378338 108.857 0.00516349Z" fill="white"/>
<path d="M32.3926 4.39124C32.3926 4.53008 32.3926 4.61176 32.3926 4.68527C32.3926 9.25911 32.3926 13.8329 32.3926 18.3986C32.3926 19.4522 31.7473 20.0975 30.6937 20.0975C30.269 20.0975 29.8443 20.0893 29.4196 20.1056C29.2317 20.1138 29.1909 20.0485 29.1909 19.8688C29.1991 17.1572 29.1909 14.4537 29.1909 11.7421C29.1909 7.94413 29.1909 4.15438 29.1827 0.356455C29.1827 0.135931 29.2399 0.0950928 29.4523 0.0950928C30.3262 0.10326 31.2001 0.10326 32.074 0.0950928C32.4743 0.0950928 32.7928 0.242109 33.046 0.560644C35.9536 4.30956 38.8695 8.05848 41.7853 11.8074C42.7817 13.0897 43.7863 14.3802 44.7828 15.6625C44.8155 15.7033 44.8481 15.736 44.9135 15.8177C44.9135 15.6952 44.9135 15.6216 44.9135 15.54C44.9135 10.9416 44.9135 6.33512 44.9135 1.73677C44.9135 0.740331 45.5587 0.0950928 46.547 0.0950928C47.0044 0.0950928 47.4536 0.10326 47.911 0.0950928C48.0498 0.0950928 48.0988 0.135931 48.0825 0.266612C48.0743 0.299282 48.0825 0.34012 48.0825 0.37279C48.0825 6.84967 48.0825 13.3347 48.0907 19.8116C48.0907 20.024 48.0498 20.0975 47.8211 20.0893C46.9554 20.073 46.0896 20.073 45.2238 20.0893C44.791 20.0975 44.4642 19.9341 44.2029 19.5911C42.5775 17.492 40.9522 15.393 39.3268 13.2939C37.0644 10.3699 34.7938 7.45408 32.5314 4.53008C32.4906 4.51375 32.4661 4.48108 32.3926 4.39124Z" fill="white"/>
<path d="M0.00816757 10.0921C0.00816757 6.85779 0.00816757 3.61527 0 0.380908C0 0.160383 0.0490054 0.10321 0.277697 0.10321C4.75353 0.111378 9.22936 0.119546 13.7052 0.10321C14.8568 0.10321 15.9594 0.258394 16.964 0.846459C18.5812 1.7939 19.6675 3.14971 19.9207 5.04459C20.2311 7.36418 19.349 9.19372 17.4704 10.5414C16.4005 11.3091 15.1835 11.6031 13.8849 11.6031C10.4055 11.6031 6.9261 11.6031 3.44671 11.595C3.24253 11.595 3.20169 11.6522 3.20169 11.8482C3.20986 14.0616 3.20986 16.2832 3.20986 18.4966C3.20986 19.4195 2.52378 20.1056 1.59268 20.1056C1.14346 20.1056 0.694244 20.0974 0.253195 20.1138C0.0490054 20.1138 0 20.0648 0 19.8687C0.00816757 18.0719 0.00816757 16.275 0.00816757 14.4781C0.00816757 13.0161 0.00816757 11.5541 0.00816757 10.0921ZM8.79647 8.60565C10.4708 8.60565 12.1452 8.60565 13.8195 8.60565C14.0482 8.60565 14.2769 8.58932 14.4974 8.56481C15.7961 8.39329 16.8905 7.19266 16.8987 5.92669C16.915 4.36668 15.6491 3.10888 14.0482 3.10888C10.5035 3.10888 6.95877 3.10888 3.41404 3.10071C3.21802 3.10071 3.19352 3.16605 3.19352 3.33757C3.20169 5.02009 3.20169 6.69444 3.19352 8.37696C3.19352 8.55665 3.23436 8.60565 3.42221 8.60565C5.21908 8.59748 7.00778 8.60565 8.79647 8.60565Z" fill="white"/>
<path d="M87.0418 4.45653C87.0418 5.73068 87.0336 7.01298 87.05 8.28713C87.0582 8.78535 86.9601 9.2509 86.6579 9.62661C86.3966 9.95331 86.029 10.182 85.588 10.2637C85.2204 10.329 84.8447 10.2963 84.469 10.3045C84.3792 10.3045 84.3465 10.2718 84.3547 10.1902C84.3547 10.133 84.3547 10.0758 84.3547 10.0105C84.3547 7.82157 84.3547 5.63266 84.3547 3.45192C84.3547 3.17423 84.3547 3.16606 84.0688 3.22323C81.251 3.79496 79.2254 5.3713 78.376 8.12377C77.5266 10.8844 78.2943 13.3102 80.4588 15.2459C82.1331 16.7487 84.1178 17.3123 86.3231 17.0509C89.1 16.7242 91.0766 15.2296 92.2772 12.7139C92.6121 12.0197 92.7346 11.2683 92.7918 10.5005C92.8 10.3372 92.7591 10.2882 92.5876 10.2882C92.0567 10.2963 91.534 10.28 91.0031 10.2963C90.7989 10.3045 90.7499 10.2392 90.7662 10.0513C90.7907 9.78179 90.7581 9.51226 90.7989 9.23456C90.8969 8.58933 91.436 8.10744 92.0894 8.09927C93.29 8.0911 94.4988 8.09927 95.6994 8.09927C95.7974 8.09927 95.8873 8.07477 95.8873 8.22995C95.8628 9.28357 95.9363 10.3454 95.7975 11.399C95.5116 13.5225 94.605 15.3439 93.1267 16.8794C91.4686 18.6028 89.4431 19.64 87.0827 19.9831C82.2883 20.6773 77.8778 18.3496 75.9748 14.2985C74.2922 10.7701 74.6761 7.34785 76.9957 4.21151C78.7191 1.89192 81.0958 0.609608 83.9463 0.201229C84.9101 0.0623806 85.8739 0.0787158 86.8458 0.193062C87.0091 0.209397 87.0418 0.282905 87.0418 0.429921C87.0336 1.77757 87.0418 3.11705 87.0418 4.45653Z" fill="white"/>
<path d="M63.1353 4.4892C63.1353 5.82052 63.1272 7.14367 63.1353 8.47498C63.1353 8.9242 62.9965 9.34074 62.7269 9.65928C62.3839 10.0677 61.902 10.3045 61.3385 10.3127C61.0934 10.3127 60.8566 10.3045 60.6115 10.3127C60.489 10.3209 60.4482 10.2718 60.4482 10.1493C60.4564 9.77362 60.4482 9.39791 60.4482 9.03037C60.4482 7.16817 60.4482 5.29779 60.4564 3.43559C60.4564 3.22323 60.4237 3.16606 60.195 3.21506C57.6875 3.68061 55.8008 5.02826 54.7636 7.33969C53.6364 9.86347 53.9876 12.2892 55.76 14.4373C56.8871 15.8095 58.341 16.6834 60.1051 16.9856C64.0419 17.6717 67.1048 15.5318 68.3544 12.7466C68.6729 12.036 68.8281 11.2846 68.8771 10.5087C68.8853 10.3208 68.8199 10.2882 68.6566 10.2963C68.1257 10.3045 67.603 10.2963 67.0721 10.3045C66.9251 10.3045 66.8597 10.2718 66.8679 10.1085C66.8842 9.88797 66.8679 9.66744 66.8679 9.44692C66.8761 8.68734 67.4396 8.10744 68.2074 8.10744C69.3917 8.10744 70.5678 8.10744 71.7521 8.09927C71.9236 8.09927 71.9726 8.14828 71.9726 8.31979C71.9563 9.25907 72.0053 10.1983 71.9073 11.1376C71.7113 13.057 70.9925 14.7558 69.7756 16.2342C68.0114 18.3904 65.7244 19.6564 62.9638 20.0076C60.0071 20.3833 57.3037 19.7136 54.9351 17.8759C52.836 16.2423 51.5292 14.1106 51.1698 11.4643C50.7615 8.47498 51.5945 5.82869 53.6038 3.57444C55.319 1.65506 57.4834 0.560602 60.0235 0.201229C60.9954 0.0623806 61.9674 0.0787158 62.9393 0.193062C63.0945 0.209397 63.1272 0.274737 63.1272 0.421754C63.1353 1.77757 63.1353 3.13339 63.1353 4.4892Z" fill="white"/>
<path d="M26.1852 10.7618C26.1852 13.792 26.1852 16.8222 26.1934 19.8523C26.1934 20.0484 26.1526 20.1219 25.9484 20.1137C25.491 20.0974 25.0418 20.1055 24.5844 20.1055C23.6778 20.1055 22.9917 19.4276 22.9917 18.521C22.9917 12.4525 22.9917 6.38402 22.9836 0.315513C22.9836 0.160329 23.0162 0.0949883 23.1877 0.103156C23.6696 0.111323 24.1597 0.103156 24.6416 0.111323C25.4992 0.119491 26.1934 0.813735 26.1934 1.67133C26.1852 4.7015 26.1852 7.73167 26.1852 10.7618Z" fill="white"/>
<path d="M119.998 10.1412C119.941 13.4899 118.52 16.1444 115.865 18.1617C115.743 18.2598 115.685 18.2434 115.596 18.1127C115.089 17.3695 114.583 16.6344 114.068 15.9075C113.978 15.7768 113.978 15.7196 114.109 15.6135C115.302 14.6742 116.225 13.5226 116.617 12.0442C117.294 9.50412 116.78 7.2417 114.934 5.32232C114.632 5.00379 114.297 4.70976 113.938 4.45656C113.831 4.38305 113.807 4.32588 113.889 4.21153C114.411 3.46829 114.934 2.72504 115.449 1.97362C115.522 1.85927 115.579 1.85111 115.685 1.93278C118.03 3.62347 119.483 5.86138 119.916 8.73637C119.949 8.95689 119.982 9.18559 119.99 9.41428C120.006 9.6593 119.998 9.90433 119.998 10.1412Z" fill="white"/>
<path d="M109.445 14.2902C107.42 14.2902 105.664 13.0079 105.157 11.1702C104.537 8.89959 105.917 6.5555 108.22 5.95927C110.042 5.48555 111.937 6.10628 113.007 7.52744C114.591 9.62651 113.921 12.5668 111.577 13.7756C110.916 14.1268 110.205 14.3065 109.445 14.2902ZM109.462 7.08639C108.882 7.07823 108.326 7.22524 107.845 7.50294C106.285 8.41771 105.835 10.3861 106.897 11.7582C107.714 12.8037 108.8 13.1794 110.091 12.9589C111.79 12.673 112.917 10.9088 112.459 9.26714C112.116 8.00933 110.875 7.10273 109.462 7.08639Z" fill="white"/>
</svg>
