<svg width="181" height="176" viewBox="0 0 181 176" fill="none" xmlns="http://www.w3.org/2000/svg">
<path id="Vector" d="M90.3252 175.773C49.0945 175.773 13.3501 149.236 3.04237 111.206C-9.59285 64.2176 18.5039 15.7082 65.3872 3.36951C102.462 -6.4338 141.032 6.41192 162.812 35.8218C195.065 79.2606 181.432 140.109 133.717 165.124C120.251 172.392 105.787 176.111 90.3252 175.773ZM90.6578 26.6946C78.8538 26.5256 67.5484 29.568 57.7395 35.3148C25.9852 54.2453 16.8415 94.9797 38.4543 123.376C55.0796 145.01 77.1911 152.785 103.459 148.222C138.04 142.306 160.983 105.797 151.673 71.8236C144.69 45.7942 119.42 27.0327 90.6578 26.6946Z" fill="white" fill-opacity="0.15"/>
</svg>
